<svg width="969" height="693" viewBox="0 0 969 693" fill="none" xmlns="http://www.w3.org/2000/svg">
<circle cx="18.6009" cy="332.375" r="18.6009" fill="#57DEC6" fill-opacity="0.6"/>
<circle cx="18.6009" cy="417.72" r="18.6009" fill="#57DEC6" fill-opacity="0.6"/>
<circle cx="18.6009" cy="503.065" r="18.6009" fill="#57DEC6" fill-opacity="0.6"/>
<circle cx="18.6009" cy="588.41" r="18.6009" fill="#57DEC6" fill-opacity="0.6"/>
<circle cx="18.6009" cy="673.755" r="18.6009" fill="#57DEC6" fill-opacity="0.6"/>
<circle cx="106.134" cy="332.375" r="18.6009" fill="#57DEC6" fill-opacity="0.6"/>
<circle cx="106.134" cy="417.72" r="18.6009" fill="#57DEC6" fill-opacity="0.6"/>
<circle cx="106.134" cy="503.065" r="18.6009" fill="#57DEC6" fill-opacity="0.6"/>
<circle cx="106.134" cy="588.41" r="18.6009" fill="#57DEC6" fill-opacity="0.6"/>
<circle cx="106.134" cy="673.755" r="18.6009" fill="#57DEC6" fill-opacity="0.6"/>
<circle cx="193.668" cy="332.375" r="18.6009" fill="#57DEC6" fill-opacity="0.6"/>
<circle cx="193.668" cy="417.72" r="18.6009" fill="#57DEC6" fill-opacity="0.6"/>
<circle cx="193.668" cy="503.065" r="18.6009" fill="#57DEC6" fill-opacity="0.6"/>
<circle cx="193.668" cy="588.41" r="18.6009" fill="#57DEC6" fill-opacity="0.6"/>
<circle cx="193.668" cy="673.755" r="18.6009" fill="#57DEC6" fill-opacity="0.6"/>
<circle cx="281.201" cy="332.375" r="18.6009" fill="#57DEC6" fill-opacity="0.6"/>
<circle cx="281.201" cy="417.72" r="18.6009" fill="#57DEC6" fill-opacity="0.6"/>
<circle cx="281.201" cy="503.065" r="18.6009" fill="#57DEC6" fill-opacity="0.6"/>
<circle cx="281.201" cy="588.41" r="18.6009" fill="#57DEC6" fill-opacity="0.6"/>
<circle cx="281.201" cy="673.755" r="18.6009" fill="#57DEC6" fill-opacity="0.6"/>
<circle cx="368.735" cy="332.375" r="18.6009" fill="#57DEC6" fill-opacity="0.6"/>
<circle cx="368.735" cy="417.72" r="18.6009" fill="#57DEC6" fill-opacity="0.6"/>
<circle cx="368.735" cy="503.065" r="18.6009" fill="#57DEC6" fill-opacity="0.6"/>
<circle cx="368.735" cy="588.41" r="18.6009" fill="#57DEC6" fill-opacity="0.6"/>
<circle cx="368.735" cy="673.755" r="18.6009" fill="#57DEC6" fill-opacity="0.6"/>
<circle cx="456.268" cy="332.375" r="18.6009" fill="#57DEC6" fill-opacity="0.6"/>
<circle cx="456.268" cy="417.72" r="18.6009" fill="#57DEC6" fill-opacity="0.6"/>
<circle cx="456.268" cy="503.065" r="18.6009" fill="#57DEC6" fill-opacity="0.6"/>
<circle cx="456.268" cy="588.41" r="18.6009" fill="#57DEC6" fill-opacity="0.6"/>
<circle cx="456.268" cy="673.755" r="18.6009" fill="#57DEC6" fill-opacity="0.6"/>
<circle cx="543.802" cy="332.375" r="18.6009" fill="#57DEC6" fill-opacity="0.6"/>
<circle cx="543.802" cy="417.72" r="18.6009" fill="#57DEC6" fill-opacity="0.6"/>
<circle cx="543.802" cy="503.065" r="18.6009" fill="#57DEC6" fill-opacity="0.6"/>
<circle cx="543.802" cy="588.41" r="18.6009" fill="#57DEC6" fill-opacity="0.6"/>
<circle cx="543.802" cy="673.755" r="18.6009" fill="#57DEC6" fill-opacity="0.6"/>
<g clip-path="url(#clip0_145_18)">
<path d="M850.191 597.193C894.233 563.647 915.269 507.278 902.1 453.504C901.772 452.168 901.427 450.835 901.063 449.505C892.333 417.586 870.733 387.249 839.252 377.05C812.819 368.487 783.967 375.072 756.391 371.667C702.257 364.981 660.289 321.181 630.758 275.322C601.228 229.462 578.533 178.129 539.294 140.243C474.614 77.793 369.106 64.3475 288.913 104.998C208.719 145.648 157.637 235.833 159.816 325.715C161.994 415.596 215.353 501.529 292.843 547.122C321.309 563.871 354.234 575.736 387 571.584C415.431 567.982 441.264 552.705 469.561 548.17C514.051 541.039 558.257 561.154 596.738 584.595C635.218 608.035 672.387 635.819 716.115 646.686C758.574 657.238 811.177 626.909 850.191 597.193Z" fill="#8892B0"/>
<path d="M825.229 287.742C825.229 287.742 805.177 298.895 810.949 311.594C816.721 324.292 898.684 313.903 898.684 313.903C898.684 313.903 892.912 296.586 882.523 293.123C872.133 289.66 825.229 287.742 825.229 287.742Z" fill="#57DEC6"/>
<path d="M817.412 290.715C821.442 288.096 825.922 286.243 830.626 285.251C846.314 281.449 862.74 281.961 878.161 286.734L877.879 286.504C884.449 289.972 890.217 294.781 894.809 300.621L817.412 290.715Z" fill="#CCD6F6"/>
<path d="M906.211 345.325C905.934 349.47 905.657 353.61 905.38 357.747C905.001 366.411 904.056 375.041 902.552 383.583C901.144 390.728 898.904 397.817 894.898 403.9C890.892 409.973 884.947 414.994 877.905 416.841C873.582 417.878 869.086 417.976 864.722 417.13C856.491 412.454 850.915 418.434 859.134 424.518C860.999 425.897 862.937 427.172 864.941 428.339L868.67 485.91L799.405 470.903L812.923 394.319C810.853 392.437 808.959 390.37 807.267 388.143C799.521 377.857 796.854 364.454 797.362 351.594C797.881 338.722 801.31 326.174 804.715 313.764C805.584 310.397 806.632 307.079 807.855 303.824C809.368 304.447 810.903 305.013 812.462 305.486C822.424 308.511 833.01 308.753 843.423 308.742C861.951 308.73 880.457 308.007 898.939 306.572C903.186 313.564 905.765 321.441 906.477 329.591C906.775 334.835 906.687 340.094 906.211 345.325Z" fill="#CCD6F6"/>
<path d="M609.967 501.604L716.6 511.07L717.743 511.174V56.173C717.362 55.9074 716.981 55.6419 716.6 55.3764C694.377 39.8319 670.337 27.0617 645.015 17.35L639.566 92.5024L639.07 99.3827L633.678 173.912L632.016 196.838L610.163 498.949L609.967 501.604Z" fill="#CCD6F6"/>
<path d="M346.265 47.6994C345.503 48.1842 344.741 48.6691 343.979 49.177V511.174L346.265 510.966L451.744 501.604L451.547 498.948L429.694 196.838L428.032 173.911L422.641 99.3825L422.144 92.5022L416.43 13.6903C391.787 22.2322 368.237 33.6472 346.265 47.6994Z" fill="#CCD6F6"/>
<path d="M343.979 49.1773C342.443 50.1701 340.908 51.186 339.396 52.2134V517.477C339.396 529.102 346.287 538.845 355.5 541.327C357.005 541.735 358.558 541.94 360.117 541.939H702.747C704.303 541.941 705.852 541.735 707.353 541.327C710.778 540.377 713.881 538.518 716.335 535.948C721.014 530.946 723.571 524.325 723.469 517.477V60.3058C721.576 58.909 719.671 57.5237 717.743 56.173C717.362 55.9075 716.981 55.642 716.6 55.3765V517.477C716.603 518.974 716.425 520.467 716.069 521.921C714.442 528.79 709.074 533.823 702.747 533.823H360.117C352.475 533.823 346.264 526.493 346.264 517.477V47.6996C345.502 48.1845 344.74 48.6694 343.979 49.1773Z" fill="#CCD6F6"/>
<path d="M720.035 92.5071H342.827V99.3863H720.035V92.5071Z" fill="#CCD6F6"/>
<path d="M604.507 4.75551C602.221 4.18985 599.935 3.65881 597.626 3.16241V189.958H604.507V4.75551Z" fill="#CCD6F6"/>
<path d="M465.239 0.841858C462.941 1.26899 460.644 1.70766 458.358 2.18096V189.958H465.239V0.841858Z" fill="#CCD6F6"/>
<path d="M268.873 529.899C268.871 533.846 269.627 537.757 271.101 541.42C271.666 542.84 272.342 544.214 273.121 545.529C274.127 547.245 275.294 548.861 276.607 550.355C279.507 553.66 283.079 556.307 287.085 558.121C291.09 559.935 295.437 560.872 299.834 560.871H751.568C759.779 560.871 767.654 557.609 773.461 551.803C779.267 545.997 782.529 538.121 782.529 529.91C782.529 521.699 779.267 513.823 773.461 508.017C767.654 502.211 759.779 498.949 751.568 498.949H299.834C291.627 498.957 283.758 502.22 277.954 508.022C272.15 513.824 268.884 521.692 268.873 529.899Z" fill="#CCD6F6"/>
<path d="M342.827 196.841L717.741 196.841V173.91L342.827 173.91V196.841Z" fill="#CCD6F6"/>
<path d="M546.336 179.643H514.234C514.234 177.987 514.56 176.347 515.194 174.817C515.827 173.287 516.756 171.896 517.928 170.725C519.099 169.554 520.489 168.625 522.019 167.991C523.549 167.357 525.189 167.031 526.845 167.031H533.725C537.069 167.031 540.277 168.36 542.642 170.725C545.008 173.09 546.336 176.298 546.336 179.643Z" fill="#CCD6F6"/>
<path d="M115.982 547.584C126.011 559.467 136.858 570.634 148.444 581.004H936.424C948.01 570.634 958.857 559.467 968.886 547.584H115.982Z" fill="#3F3D56"/>
<path d="M329.733 435.825V554.222H412.678V435.825C412.679 434.974 412.408 434.144 411.903 433.458C411.398 432.773 410.686 432.267 409.873 432.016C409.489 431.889 409.088 431.827 408.684 431.831H333.739C333.214 431.83 332.693 431.932 332.208 432.133C331.722 432.333 331.281 432.627 330.908 432.998C330.536 433.369 330.241 433.809 330.04 434.295C329.838 434.78 329.734 435.3 329.733 435.825ZM362.103 476.507C362.125 474.173 363.067 471.941 364.725 470.299C366.384 468.656 368.623 467.734 370.958 467.734C373.292 467.734 375.531 468.656 377.19 470.299C378.848 471.941 379.79 474.173 379.812 476.507V490.244C379.8 492.585 378.862 494.825 377.203 496.476C375.543 498.127 373.298 499.053 370.958 499.053C368.617 499.053 366.372 498.127 364.712 496.476C363.053 494.825 362.115 492.585 362.103 490.244V476.507Z" fill="#2F2E41"/>
<path d="M329.479 550.436V561.853C329.481 562.444 329.716 563.011 330.133 563.43C330.551 563.85 331.116 564.088 331.708 564.092H410.704C411.296 564.09 411.863 563.852 412.28 563.433C412.698 563.013 412.932 562.445 412.932 561.853V550.436H329.479Z" fill="#3F3D56"/>
<path d="M199.25 257.445V473.621C199.252 476.376 200.348 479.017 202.295 480.965C204.243 482.913 206.885 484.008 209.64 484.01H529.99C532.745 484.008 535.386 482.913 537.334 480.965C539.282 479.017 540.377 476.376 540.379 473.621V257.445C540.373 254.693 539.276 252.055 537.328 250.11C535.381 248.165 532.742 247.07 529.99 247.067H209.64C206.887 247.07 204.248 248.165 202.301 250.11C200.354 252.055 199.257 254.693 199.25 257.445Z" fill="#3F3D56"/>
<path d="M206.765 260.135V470.954C206.767 472.426 207.353 473.837 208.394 474.878C209.435 475.919 210.845 476.504 212.317 476.507H527.322C528.794 476.504 530.205 475.919 531.246 474.878C532.287 473.837 532.873 472.426 532.875 470.954V260.135C532.875 258.661 532.29 257.248 531.249 256.205C530.208 255.162 528.796 254.574 527.322 254.571H212.317C210.844 254.574 209.431 255.162 208.39 256.205C207.349 257.248 206.765 258.661 206.765 260.135Z" fill="#57DEC6"/>
<path d="M270.997 566.782C271.317 567.184 271.725 567.508 272.189 567.73C272.652 567.952 273.161 568.066 273.675 568.063H461.082C461.595 568.063 462.101 567.948 462.563 567.727C463.026 567.506 463.434 567.185 463.756 566.787C464.079 566.389 464.309 565.924 464.43 565.426C464.55 564.928 464.558 564.409 464.453 563.907L461.544 550.089C461.424 549.525 461.164 549.001 460.789 548.563C460.414 548.126 459.935 547.789 459.397 547.584C459.007 547.431 458.592 547.353 458.173 547.353H276.572C276.154 547.353 275.739 547.431 275.349 547.584C274.81 547.789 274.332 548.126 273.957 548.563C273.582 549.001 273.322 549.525 273.201 550.089L270.292 563.907C270.189 564.409 270.198 564.927 270.32 565.424C270.442 565.921 270.673 566.385 270.997 566.782Z" fill="#2F2E41"/>
<path d="M451.634 553.305H456.279C456.59 553.305 456.842 553.053 456.842 552.741V550.405C456.842 550.094 456.59 549.842 456.279 549.842H451.634C451.322 549.842 451.07 550.094 451.07 550.405V552.741C451.07 553.053 451.322 553.305 451.634 553.305Z" fill="#3F3D56"/>
<path d="M440.089 553.305H444.734C445.045 553.305 445.297 553.053 445.297 552.741V550.405C445.297 550.094 445.045 549.842 444.734 549.842H440.089C439.778 549.842 439.525 550.094 439.525 550.405V552.741C439.525 553.053 439.778 553.305 440.089 553.305Z" fill="#3F3D56"/>
<path d="M428.546 553.305H433.191C433.502 553.305 433.754 553.053 433.754 552.741V550.405C433.754 550.094 433.502 549.842 433.191 549.842H428.546C428.235 549.842 427.982 550.094 427.982 550.405V552.741C427.982 553.053 428.235 553.305 428.546 553.305Z" fill="#3F3D56"/>
<path d="M417.001 553.305H421.646C421.958 553.305 422.21 553.053 422.21 552.741V550.405C422.21 550.094 421.958 549.842 421.646 549.842H417.001C416.69 549.842 416.438 550.094 416.438 550.405V552.741C416.438 553.053 416.69 553.305 417.001 553.305Z" fill="#3F3D56"/>
<path d="M405.458 553.305H410.102C410.414 553.305 410.666 553.053 410.666 552.741V550.405C410.666 550.094 410.414 549.842 410.102 549.842H405.458C405.146 549.842 404.894 550.094 404.894 550.405V552.741C404.894 553.053 405.146 553.305 405.458 553.305Z" fill="#3F3D56"/>
<path d="M393.913 553.305H398.558C398.869 553.305 399.122 553.053 399.122 552.741V550.405C399.122 550.094 398.869 549.842 398.558 549.842H393.913C393.602 549.842 393.35 550.094 393.35 550.405V552.741C393.35 553.053 393.602 553.305 393.913 553.305Z" fill="#3F3D56"/>
<path d="M382.369 553.305H387.014C387.325 553.305 387.577 553.053 387.577 552.741V550.405C387.577 550.094 387.325 549.842 387.014 549.842H382.369C382.057 549.842 381.805 550.094 381.805 550.405V552.741C381.805 553.053 382.057 553.305 382.369 553.305Z" fill="#3F3D56"/>
<path d="M370.826 553.305H375.471C375.782 553.305 376.034 553.053 376.034 552.741V550.405C376.034 550.094 375.782 549.842 375.471 549.842H370.826C370.514 549.842 370.262 550.094 370.262 550.405V552.741C370.262 553.053 370.514 553.305 370.826 553.305Z" fill="#3F3D56"/>
<path d="M359.281 553.305H363.926C364.237 553.305 364.489 553.053 364.489 552.741V550.405C364.489 550.094 364.237 549.842 363.926 549.842H359.281C358.97 549.842 358.717 550.094 358.717 550.405V552.741C358.717 553.053 358.97 553.305 359.281 553.305Z" fill="#3F3D56"/>
<path d="M347.737 553.305H352.382C352.693 553.305 352.945 553.053 352.945 552.741V550.405C352.945 550.094 352.693 549.842 352.382 549.842H347.737C347.426 549.842 347.173 550.094 347.173 550.405V552.741C347.173 553.053 347.426 553.305 347.737 553.305Z" fill="#3F3D56"/>
<path d="M336.192 553.305H340.837C341.148 553.305 341.4 553.053 341.4 552.741V550.405C341.4 550.094 341.148 549.842 340.837 549.842H336.192C335.881 549.842 335.628 550.094 335.628 550.405V552.741C335.628 553.053 335.881 553.305 336.192 553.305Z" fill="#3F3D56"/>
<path d="M324.648 553.305H329.293C329.604 553.305 329.856 553.053 329.856 552.741V550.405C329.856 550.094 329.604 549.842 329.293 549.842H324.648C324.337 549.842 324.084 550.094 324.084 550.405V552.741C324.084 553.053 324.337 553.305 324.648 553.305Z" fill="#3F3D56"/>
<path d="M313.104 553.305H317.749C318.06 553.305 318.312 553.053 318.312 552.741V550.405C318.312 550.094 318.06 549.842 317.749 549.842H313.104C312.793 549.842 312.54 550.094 312.54 550.405V552.741C312.54 553.053 312.793 553.305 313.104 553.305Z" fill="#3F3D56"/>
<path d="M301.561 553.305H306.205C306.517 553.305 306.769 553.053 306.769 552.741V550.405C306.769 550.094 306.517 549.842 306.205 549.842H301.561C301.249 549.842 300.997 550.094 300.997 550.405V552.741C300.997 553.053 301.249 553.305 301.561 553.305Z" fill="#3F3D56"/>
<path d="M290.016 553.305H294.661C294.972 553.305 295.225 553.053 295.225 552.741V550.405C295.225 550.094 294.972 549.842 294.661 549.842H290.016C289.705 549.842 289.453 550.094 289.453 550.405V552.741C289.453 553.053 289.705 553.305 290.016 553.305Z" fill="#3F3D56"/>
<path d="M278.472 553.305H283.117C283.428 553.305 283.68 553.053 283.68 552.741V550.405C283.68 550.094 283.428 549.842 283.117 549.842H278.472C278.16 549.842 277.908 550.094 277.908 550.405V552.741C277.908 553.053 278.16 553.305 278.472 553.305Z" fill="#3F3D56"/>
<path d="M451.77 559.077H456.415C456.727 559.077 456.979 558.825 456.979 558.514V556.177C456.979 555.866 456.727 555.614 456.415 555.614H451.77C451.459 555.614 451.207 555.866 451.207 556.177V558.514C451.207 558.825 451.459 559.077 451.77 559.077Z" fill="#3F3D56"/>
<path d="M440.226 559.077H444.871C445.182 559.077 445.434 558.825 445.434 558.514V556.177C445.434 555.866 445.182 555.614 444.871 555.614H440.226C439.914 555.614 439.662 555.866 439.662 556.177V558.514C439.662 558.825 439.914 559.077 440.226 559.077Z" fill="#3F3D56"/>
<path d="M428.682 559.077H433.327C433.638 559.077 433.89 558.825 433.89 558.514V556.177C433.89 555.866 433.638 555.614 433.327 555.614H428.682C428.37 555.614 428.118 555.866 428.118 556.177V558.514C428.118 558.825 428.37 559.077 428.682 559.077Z" fill="#3F3D56"/>
<path d="M417.137 559.077H421.782C422.093 559.077 422.346 558.825 422.346 558.514V556.177C422.346 555.866 422.093 555.614 421.782 555.614H417.137C416.826 555.614 416.574 555.866 416.574 556.177V558.514C416.574 558.825 416.826 559.077 417.137 559.077Z" fill="#3F3D56"/>
<path d="M405.594 559.077H410.239C410.55 559.077 410.802 558.825 410.802 558.514V556.177C410.802 555.866 410.55 555.614 410.239 555.614H405.594C405.282 555.614 405.03 555.866 405.03 556.177V558.514C405.03 558.825 405.282 559.077 405.594 559.077Z" fill="#3F3D56"/>
<path d="M394.05 559.077H398.695C399.006 559.077 399.258 558.825 399.258 558.514V556.177C399.258 555.866 399.006 555.614 398.695 555.614H394.05C393.739 555.614 393.486 555.866 393.486 556.177V558.514C393.486 558.825 393.739 559.077 394.05 559.077Z" fill="#3F3D56"/>
<path d="M382.505 559.077H387.15C387.462 559.077 387.714 558.825 387.714 558.514V556.177C387.714 555.866 387.462 555.614 387.15 555.614H382.505C382.194 555.614 381.942 555.866 381.942 556.177V558.514C381.942 558.825 382.194 559.077 382.505 559.077Z" fill="#3F3D56"/>
<path d="M370.961 559.077H375.606C375.917 559.077 376.169 558.825 376.169 558.514V556.177C376.169 555.866 375.917 555.614 375.606 555.614H370.961C370.65 555.614 370.397 555.866 370.397 556.177V558.514C370.397 558.825 370.65 559.077 370.961 559.077Z" fill="#3F3D56"/>
<path d="M359.417 559.077H364.061C364.373 559.077 364.625 558.825 364.625 558.514V556.177C364.625 555.866 364.373 555.614 364.061 555.614H359.417C359.105 555.614 358.853 555.866 358.853 556.177V558.514C358.853 558.825 359.105 559.077 359.417 559.077Z" fill="#3F3D56"/>
<path d="M347.874 559.077H352.518C352.83 559.077 353.082 558.825 353.082 558.514V556.177C353.082 555.866 352.83 555.614 352.518 555.614H347.874C347.562 555.614 347.31 555.866 347.31 556.177V558.514C347.31 558.825 347.562 559.077 347.874 559.077Z" fill="#3F3D56"/>
<path d="M336.33 559.077H340.975C341.286 559.077 341.538 558.825 341.538 558.514V556.177C341.538 555.866 341.286 555.614 340.975 555.614H336.33C336.018 555.614 335.766 555.866 335.766 556.177V558.514C335.766 558.825 336.018 559.077 336.33 559.077Z" fill="#3F3D56"/>
<path d="M324.785 559.077H329.43C329.741 559.077 329.993 558.825 329.993 558.514V556.177C329.993 555.866 329.741 555.614 329.43 555.614H324.785C324.473 555.614 324.221 555.866 324.221 556.177V558.514C324.221 558.825 324.473 559.077 324.785 559.077Z" fill="#3F3D56"/>
<path d="M313.241 559.077H317.886C318.197 559.077 318.449 558.825 318.449 558.514V556.177C318.449 555.866 318.197 555.614 317.886 555.614H313.241C312.929 555.614 312.677 555.866 312.677 556.177V558.514C312.677 558.825 312.929 559.077 313.241 559.077Z" fill="#3F3D56"/>
<path d="M301.696 559.077H306.341C306.652 559.077 306.904 558.825 306.904 558.514V556.177C306.904 555.866 306.652 555.614 306.341 555.614H301.696C301.385 555.614 301.132 555.866 301.132 556.177V558.514C301.132 558.825 301.385 559.077 301.696 559.077Z" fill="#3F3D56"/>
<path d="M290.152 559.077H294.797C295.108 559.077 295.36 558.825 295.36 558.514V556.177C295.36 555.866 295.108 555.614 294.797 555.614H290.152C289.841 555.614 289.588 555.866 289.588 556.177V558.514C289.588 558.825 289.841 559.077 290.152 559.077Z" fill="#3F3D56"/>
<path d="M278.608 559.077H283.253C283.565 559.077 283.817 558.825 283.817 558.514V556.177C283.817 555.866 283.565 555.614 283.253 555.614H278.608C278.297 555.614 278.045 555.866 278.045 556.177V558.514C278.045 558.825 278.297 559.077 278.608 559.077Z" fill="#3F3D56"/>
<path d="M355.954 566.004H401.004C401.315 566.004 401.567 565.752 401.567 565.44V563.104C401.567 562.793 401.315 562.541 401.004 562.541H355.954C355.643 562.541 355.391 562.793 355.391 563.104V565.44C355.391 565.752 355.643 566.004 355.954 566.004Z" fill="#3F3D56"/>
<path d="M228.147 283.612H522.896C523.202 283.605 523.494 283.478 523.708 283.259C523.922 283.04 524.042 282.746 524.042 282.439C524.042 282.133 523.922 281.839 523.708 281.62C523.494 281.401 523.202 281.274 522.896 281.267H228.147C227.84 281.274 227.549 281.401 227.334 281.62C227.12 281.839 227 282.133 227 282.439C227 282.746 227.12 283.04 227.334 283.259C227.549 283.478 227.84 283.605 228.147 283.612Z" fill="#3F3D56"/>
<path d="M502.832 275.283C506.625 275.283 509.701 272.139 509.701 268.261C509.701 264.382 506.625 261.238 502.832 261.238C499.038 261.238 495.962 264.382 495.962 268.261C495.962 272.139 499.038 275.283 502.832 275.283Z" fill="#3F3D56"/>
<path d="M479.101 275.283C482.895 275.283 485.97 272.139 485.97 268.261C485.97 264.382 482.895 261.238 479.101 261.238C475.307 261.238 472.232 264.382 472.232 268.261C472.232 272.139 475.307 275.283 479.101 275.283Z" fill="#3F3D56"/>
<path d="M455.372 275.283C459.166 275.283 462.241 272.139 462.241 268.261C462.241 264.382 459.166 261.238 455.372 261.238C451.578 261.238 448.502 264.382 448.502 268.261C448.502 272.139 451.578 275.283 455.372 275.283Z" fill="#3F3D56"/>
<path d="M241.178 264.256C241.177 264.422 241.209 264.587 241.272 264.74C241.334 264.894 241.427 265.034 241.544 265.152C241.661 265.27 241.8 265.363 241.953 265.428C242.106 265.492 242.27 265.525 242.436 265.526H259.291C259.624 265.518 259.941 265.38 260.173 265.142C260.406 264.904 260.537 264.584 260.537 264.25C260.537 263.917 260.406 263.597 260.173 263.359C259.941 263.12 259.624 262.982 259.291 262.975H242.436C242.1 262.979 241.778 263.116 241.543 263.356C241.307 263.596 241.176 263.92 241.178 264.256Z" fill="#3F3D56"/>
<path d="M241.178 269.047C241.177 269.213 241.209 269.377 241.272 269.531C241.334 269.685 241.427 269.825 241.544 269.943C241.661 270.06 241.8 270.154 241.953 270.218C242.106 270.283 242.27 270.316 242.436 270.317H259.291C259.624 270.309 259.941 270.172 260.174 269.933C260.408 269.695 260.538 269.375 260.538 269.041C260.538 268.708 260.408 268.387 260.174 268.149C259.941 267.911 259.624 267.773 259.291 267.766H242.436C242.1 267.77 241.778 267.907 241.543 268.147C241.307 268.387 241.176 268.71 241.178 269.047Z" fill="#3F3D56"/>
<path d="M241.178 273.826C241.176 274.162 241.307 274.486 241.543 274.726C241.778 274.966 242.1 275.103 242.436 275.107H259.291C259.624 275.1 259.941 274.962 260.173 274.723C260.406 274.485 260.537 274.165 260.537 273.832C260.537 273.499 260.406 273.179 260.173 272.94C259.941 272.702 259.624 272.564 259.291 272.556H242.436C242.27 272.557 242.106 272.59 241.953 272.655C241.8 272.719 241.661 272.812 241.544 272.93C241.427 273.048 241.334 273.188 241.272 273.342C241.209 273.495 241.177 273.66 241.178 273.826Z" fill="#3F3D56"/>
<path d="M246.387 310.852H240.331C238.495 310.852 237.006 312.34 237.006 314.176C237.006 316.013 238.495 317.501 240.331 317.501H246.387C248.223 317.501 249.712 316.013 249.712 314.176C249.712 312.34 248.223 310.852 246.387 310.852Z" fill="#CCD6F6"/>
<path d="M315.652 310.852H309.596C307.76 310.852 306.271 312.34 306.271 314.176C306.271 316.013 307.76 317.501 309.596 317.501H315.652C317.488 317.501 318.977 316.013 318.977 314.176C318.977 312.34 317.488 310.852 315.652 310.852Z" fill="#CCD6F6"/>
<path d="M335.276 310.852H329.22C327.384 310.852 325.895 312.34 325.895 314.176C325.895 316.013 327.384 317.501 329.22 317.501H335.276C337.112 317.501 338.601 316.013 338.601 314.176C338.601 312.34 337.112 310.852 335.276 310.852Z" fill="#CCD6F6"/>
<path d="M296.811 310.298H259.171C257.335 310.298 255.846 311.786 255.846 313.622C255.846 315.458 257.335 316.947 259.171 316.947H296.811C298.648 316.947 300.136 315.458 300.136 313.622C300.136 311.786 298.648 310.298 296.811 310.298Z" fill="#CCD6F6"/>
<path d="M389.165 310.298H351.525C349.689 310.298 348.2 311.786 348.2 313.622C348.2 315.458 349.689 316.947 351.525 316.947H389.165C391.002 316.947 392.49 315.458 392.49 313.622C392.49 311.786 391.002 310.298 389.165 310.298Z" fill="#CCD6F6"/>
<path d="M264.858 325.859H258.802C256.966 325.859 255.477 327.348 255.477 329.184C255.477 331.02 256.966 332.509 258.802 332.509H264.858C266.694 332.509 268.183 331.02 268.183 329.184C268.183 327.348 266.694 325.859 264.858 325.859Z" fill="#CCD6F6"/>
<path d="M334.122 325.859H328.066C326.23 325.859 324.741 327.348 324.741 329.184C324.741 331.02 326.23 332.509 328.066 332.509H334.122C335.958 332.509 337.447 331.02 337.447 329.184C337.447 327.348 335.958 325.859 334.122 325.859Z" fill="#CCD6F6"/>
<path d="M353.747 325.859H347.69C345.854 325.859 344.366 327.348 344.366 329.184C344.366 331.02 345.854 332.509 347.69 332.509H353.747C355.583 332.509 357.071 331.02 357.071 329.184C357.071 327.348 355.583 325.859 353.747 325.859Z" fill="#CCD6F6"/>
<path d="M315.282 325.305H277.641C275.805 325.305 274.316 326.794 274.316 328.63C274.316 330.466 275.805 331.955 277.641 331.955H315.282C317.118 331.955 318.606 330.466 318.606 328.63C318.606 326.794 317.118 325.305 315.282 325.305Z" fill="#CCD6F6"/>
<path d="M407.636 325.305H369.995C368.159 325.305 366.67 326.794 366.67 328.63C366.67 330.466 368.159 331.955 369.995 331.955H407.636C409.472 331.955 410.96 330.466 410.96 328.63C410.96 326.794 409.472 325.305 407.636 325.305Z" fill="#CCD6F6"/>
<path d="M283.328 340.867H277.271C275.435 340.867 273.947 342.355 273.947 344.191C273.947 346.028 275.435 347.516 277.271 347.516H283.328C285.164 347.516 286.652 346.028 286.652 344.191C286.652 342.355 285.164 340.867 283.328 340.867Z" fill="#CCD6F6"/>
<path d="M352.593 340.867H346.537C344.7 340.867 343.212 342.355 343.212 344.191C343.212 346.028 344.7 347.516 346.537 347.516H352.593C354.429 347.516 355.918 346.028 355.918 344.191C355.918 342.355 354.429 340.867 352.593 340.867Z" fill="#CCD6F6"/>
<path d="M372.218 340.867H366.162C364.326 340.867 362.837 342.355 362.837 344.191C362.837 346.028 364.326 347.516 366.162 347.516H372.218C374.055 347.516 375.543 346.028 375.543 344.191C375.543 342.355 374.055 340.867 372.218 340.867Z" fill="#CCD6F6"/>
<path d="M333.752 340.312H296.112C294.276 340.312 292.787 341.801 292.787 343.637C292.787 345.473 294.276 346.962 296.112 346.962H333.752C335.589 346.962 337.077 345.473 337.077 343.637C337.077 341.801 335.589 340.312 333.752 340.312Z" fill="#CCD6F6"/>
<path d="M426.106 340.312H388.466C386.63 340.312 385.141 341.801 385.141 343.637C385.141 345.473 386.63 346.962 388.466 346.962H426.106C427.943 346.962 429.431 345.473 429.431 343.637C429.431 341.801 427.943 340.312 426.106 340.312Z" fill="#CCD6F6"/>
<path d="M301.798 355.874H295.742C293.906 355.874 292.417 357.363 292.417 359.199C292.417 361.035 293.906 362.524 295.742 362.524H301.798C303.635 362.524 305.123 361.035 305.123 359.199C305.123 357.363 303.635 355.874 301.798 355.874Z" fill="#CCD6F6"/>
<path d="M371.064 355.874H365.007C363.171 355.874 361.683 357.363 361.683 359.199C361.683 361.035 363.171 362.524 365.007 362.524H371.064C372.9 362.524 374.388 361.035 374.388 359.199C374.388 357.363 372.9 355.874 371.064 355.874Z" fill="#CCD6F6"/>
<path d="M390.689 355.874H384.633C382.797 355.874 381.308 357.363 381.308 359.199C381.308 361.035 382.797 362.524 384.633 362.524H390.689C392.525 362.524 394.014 361.035 394.014 359.199C394.014 357.363 392.525 355.874 390.689 355.874Z" fill="#CCD6F6"/>
<path d="M352.223 355.32H314.582C312.746 355.32 311.258 356.809 311.258 358.645C311.258 360.481 312.746 361.969 314.582 361.969H352.223C354.059 361.969 355.548 360.481 355.548 358.645C355.548 356.809 354.059 355.32 352.223 355.32Z" fill="#CCD6F6"/>
<path d="M315.652 415.55H309.596C307.76 415.55 306.271 417.038 306.271 418.875C306.271 420.711 307.76 422.199 309.596 422.199H315.652C317.488 422.199 318.977 420.711 318.977 418.875C318.977 417.038 317.488 415.55 315.652 415.55Z" fill="#CCD6F6"/>
<path d="M335.276 415.55H329.22C327.384 415.55 325.895 417.038 325.895 418.875C325.895 420.711 327.384 422.199 329.22 422.199H335.276C337.112 422.199 338.601 420.711 338.601 418.875C338.601 417.038 337.112 415.55 335.276 415.55Z" fill="#CCD6F6"/>
<path d="M389.165 416.104H351.525C349.689 416.104 348.2 417.593 348.2 419.429C348.2 421.265 349.689 422.754 351.525 422.754H389.165C391.002 422.754 392.49 421.265 392.49 419.429C392.49 417.593 391.002 416.104 389.165 416.104Z" fill="#CCD6F6"/>
<path d="M246.387 415.55H240.331C238.495 415.55 237.006 417.038 237.006 418.875C237.006 420.711 238.495 422.199 240.331 422.199H246.387C248.223 422.199 249.712 420.711 249.712 418.875C249.712 417.038 248.223 415.55 246.387 415.55Z" fill="#CCD6F6"/>
<path d="M296.811 416.104H259.171C257.335 416.104 255.846 417.593 255.846 419.429C255.846 421.265 257.335 422.754 259.171 422.754H296.811C298.648 422.754 300.136 421.265 300.136 419.429C300.136 417.593 298.648 416.104 296.811 416.104Z" fill="#CCD6F6"/>
<path d="M264.858 400.542H258.802C256.966 400.542 255.477 402.031 255.477 403.867C255.477 405.703 256.966 407.192 258.802 407.192H264.858C266.694 407.192 268.183 405.703 268.183 403.867C268.183 402.031 266.694 400.542 264.858 400.542Z" fill="#CCD6F6"/>
<path d="M334.122 400.542H328.066C326.23 400.542 324.741 402.031 324.741 403.867C324.741 405.703 326.23 407.192 328.066 407.192H334.122C335.958 407.192 337.447 405.703 337.447 403.867C337.447 402.031 335.958 400.542 334.122 400.542Z" fill="#CCD6F6"/>
<path d="M353.747 400.542H347.69C345.854 400.542 344.366 402.031 344.366 403.867C344.366 405.703 345.854 407.192 347.69 407.192H353.747C355.583 407.192 357.071 405.703 357.071 403.867C357.071 402.031 355.583 400.542 353.747 400.542Z" fill="#CCD6F6"/>
<path d="M315.282 401.097H277.641C275.805 401.097 274.316 402.585 274.316 404.422C274.316 406.258 275.805 407.746 277.641 407.746H315.282C317.118 407.746 318.606 406.258 318.606 404.422C318.606 402.585 317.118 401.097 315.282 401.097Z" fill="#CCD6F6"/>
<path d="M283.328 385.535H277.271C275.435 385.535 273.947 387.024 273.947 388.86C273.947 390.696 275.435 392.184 277.271 392.184H283.328C285.164 392.184 286.652 390.696 286.652 388.86C286.652 387.024 285.164 385.535 283.328 385.535Z" fill="#CCD6F6"/>
<path d="M352.593 385.535H346.537C344.7 385.535 343.212 387.024 343.212 388.86C343.212 390.696 344.7 392.184 346.537 392.184H352.593C354.429 392.184 355.918 390.696 355.918 388.86C355.918 387.024 354.429 385.535 352.593 385.535Z" fill="#CCD6F6"/>
<path d="M372.218 385.535H366.162C364.326 385.535 362.837 387.024 362.837 388.86C362.837 390.696 364.326 392.184 366.162 392.184H372.218C374.055 392.184 375.543 390.696 375.543 388.86C375.543 387.024 374.055 385.535 372.218 385.535Z" fill="#CCD6F6"/>
<path d="M333.752 386.09H296.112C294.276 386.09 292.787 387.578 292.787 389.415C292.787 391.251 294.276 392.739 296.112 392.739H333.752C335.589 392.739 337.077 391.251 337.077 389.415C337.077 387.578 335.589 386.09 333.752 386.09Z" fill="#CCD6F6"/>
<path d="M301.798 370.528H295.742C293.906 370.528 292.417 372.016 292.417 373.853C292.417 375.689 293.906 377.177 295.742 377.177H301.798C303.635 377.177 305.123 375.689 305.123 373.853C305.123 372.016 303.635 370.528 301.798 370.528Z" fill="#CCD6F6"/>
<path d="M371.064 370.528H365.007C363.171 370.528 361.683 372.016 361.683 373.853C361.683 375.689 363.171 377.177 365.007 377.177H371.064C372.9 377.177 374.388 375.689 374.388 373.853C374.388 372.016 372.9 370.528 371.064 370.528Z" fill="#CCD6F6"/>
<path d="M390.689 370.528H384.633C382.797 370.528 381.308 372.016 381.308 373.853C381.308 375.689 382.797 377.177 384.633 377.177H390.689C392.525 377.177 394.014 375.689 394.014 373.853C394.014 372.016 392.525 370.528 390.689 370.528Z" fill="#CCD6F6"/>
<path d="M352.223 371.082H314.582C312.746 371.082 311.258 372.571 311.258 374.407C311.258 376.243 312.746 377.731 314.582 377.731H352.223C354.059 377.731 355.548 376.243 355.548 374.407C355.548 372.571 354.059 371.082 352.223 371.082Z" fill="#CCD6F6"/>
<path d="M224.612 632.353C225.316 632.71 226.032 633.068 226.736 633.415C244.976 642.535 259.568 647.718 279.528 653.398C281.213 634.581 282.841 601.507 284.422 581.004C284.838 575.682 285.254 571.215 285.658 568.063C285.76 566.388 286.102 564.735 286.674 563.157L286.604 568.063L286.431 581.004L285.427 655.014C310.255 661.583 335.76 665.259 361.433 665.969C362.773 666.004 364.089 666.027 365.358 666.05C365.809 666.061 366.247 666.073 366.686 666.073C368.129 666.084 369.561 666.096 371.004 666.096C398.058 666.116 425.015 662.848 451.281 656.364C450.716 637.744 450.15 605.039 449.608 581.004C449.492 576.306 449.388 571.93 449.273 568.063C449.053 559.798 448.823 553.841 448.603 551.844C448.798 552.198 448.949 552.573 449.053 552.963C450.123 557.941 450.852 562.986 451.235 568.063C451.639 571.93 452.043 576.306 452.447 581.004C454.595 605.974 456.834 639.925 459.143 654.321C472.886 650.569 486.371 645.93 499.513 640.433C506.439 637.547 513.243 634.434 519.923 631.094C518.653 622.782 517.326 613.466 515.963 603.804C514.901 596.312 513.805 588.612 512.685 581.004C510.953 569.252 485.221 487.127 483.594 484.01C482.197 481.344 480.869 478.827 479.611 476.507C476.563 470.873 473.977 466.382 472.061 463.542C464.049 451.39 452.122 442.343 438.26 437.903L437.913 437.811L437.671 437.915L414.063 430.665L410.612 429.603L408.291 428.887L400.118 422.665L395.673 419.282L391.506 416.108L383.356 409.908L332.896 413.014L323.072 436.668L301.069 444.714L300.688 444.541L300.354 444.402L300.007 444.495C286.147 448.938 274.221 457.985 266.206 470.134C265.121 471.762 263.805 473.909 262.316 476.507C261.046 478.712 259.66 481.228 258.16 484.01C256.024 487.97 253.692 492.438 251.222 497.275C250.679 498.337 250.125 499.422 249.571 500.518C248.543 502.55 247.501 504.624 246.442 506.741C243.983 511.647 241.444 516.773 238.904 521.979C236.699 526.493 234.471 535.774 232.278 547.584C230.465 557.396 228.664 568.964 226.921 581.004C224.635 596.612 227.071 615.302 225.005 629.663C224.878 630.575 224.739 631.464 224.612 632.353Z" fill="#3F3D56"/>
<path opacity="0.2" d="M466.45 547.533L456.641 509.678L447.979 542.343L466.45 547.533Z" fill="black"/>
<path d="M205.426 522.868C208.935 571.215 205.299 592.502 224.67 632.364C242.295 640.991 260.653 648.03 279.528 653.398C281.49 653.952 283.456 654.491 285.427 655.014C310.255 661.583 335.76 665.26 361.433 665.969C362.772 666.004 364.088 666.027 365.358 666.05C365.809 666.062 366.247 666.073 366.686 666.073C368.129 666.085 369.56 666.096 371.003 666.096C398.058 666.116 425.015 662.848 451.281 656.365C453.913 655.718 456.534 655.037 459.143 654.321C472.886 650.569 486.37 645.931 499.513 640.434C506.439 637.548 513.243 634.435 519.923 631.094C521.435 630.333 522.947 629.571 524.437 628.786C532.09 615.325 536.443 598.956 536.535 579.284C531.236 545.391 217.132 493.638 205.426 522.868Z" fill="#2F2E41"/>
<path opacity="0.2" d="M205.435 531.147C205.256 528.154 205.055 525.063 204.822 521.843C216.528 492.613 530.632 544.366 535.931 578.259C535.916 581.367 535.783 584.382 535.56 587.327C522.728 553.874 224.324 504.686 205.435 531.147Z" fill="black"/>
<path d="M134.256 547.094C134.764 548.575 135.729 549.857 137.012 550.755C138.294 551.653 139.828 552.122 141.394 552.094L171.976 551.307C173.553 551.276 175.078 550.736 176.322 549.767C177.567 548.798 178.464 547.452 178.88 545.931L183.208 499.653C184.744 500.349 186.415 500.693 188.101 500.659C191.056 500.583 193.861 499.336 195.898 497.193C197.935 495.049 199.037 492.185 198.963 489.229C198.889 486.274 197.644 483.468 195.502 481.43C193.36 479.392 190.497 478.287 187.541 478.359C186.867 478.357 186.195 478.427 185.536 478.568C184.82 477.793 183.949 477.176 182.98 476.758C182.011 476.34 180.965 476.13 179.91 476.14L132.867 477.355C132.477 477.369 132.088 477.418 131.706 477.499C130.675 477.691 129.696 478.102 128.837 478.705C127.977 479.307 127.257 480.086 126.724 480.99C126.191 481.894 125.858 482.902 125.747 483.945C125.636 484.989 125.75 486.044 126.081 487.04L134.256 547.094ZM184.096 496.511L187.175 485.483C187.526 484.21 187.534 482.866 187.199 481.588C187.348 481.587 187.48 481.517 187.629 481.516C189.741 481.473 191.784 482.268 193.31 483.728C194.836 485.188 195.72 487.194 195.77 489.305C195.819 491.417 195.029 493.462 193.573 494.992C192.118 496.522 190.114 497.412 188.003 497.467C186.638 497.51 185.287 497.179 184.096 496.511Z" fill="#2F2E41"/>
<path d="M131.706 477.499C132.708 483.23 143.976 487.258 157.526 486.558C169.985 485.984 180.172 481.609 182.039 476.424C181.348 476.22 180.63 476.124 179.909 476.14L132.866 477.355C132.476 477.369 132.088 477.417 131.706 477.499Z" fill="#3F3D56"/>
<path d="M160.008 521.664C160.07 521.649 160.129 521.623 160.182 521.588L166.824 517.241C166.904 517.188 166.97 517.117 167.016 517.032C167.061 516.948 167.085 516.854 167.085 516.758C167.086 516.662 167.062 516.568 167.016 516.484C166.97 516.399 166.905 516.328 166.824 516.275L159.921 511.754C159.858 511.712 159.787 511.683 159.712 511.668C159.638 511.654 159.561 511.654 159.486 511.67C159.412 511.685 159.341 511.715 159.279 511.758C159.216 511.8 159.162 511.855 159.12 511.919C159.079 511.982 159.05 512.053 159.036 512.128C159.022 512.203 159.023 512.279 159.038 512.354C159.054 512.428 159.084 512.498 159.127 512.561C159.17 512.624 159.225 512.677 159.289 512.719L165.454 516.757L159.551 520.622C159.436 520.697 159.352 520.81 159.313 520.94C159.274 521.071 159.283 521.212 159.338 521.337C159.393 521.462 159.49 521.563 159.613 521.623C159.736 521.683 159.876 521.698 160.008 521.664Z" fill="#57DEC6"/>
<path d="M149.519 522.148C149.631 522.12 149.731 522.059 149.808 521.974C149.885 521.888 149.934 521.781 149.95 521.667C149.965 521.554 149.947 521.438 149.896 521.334C149.845 521.231 149.765 521.145 149.665 521.088L143.543 517.578L149.46 513.183C149.521 513.138 149.572 513.081 149.611 513.016C149.65 512.951 149.676 512.879 149.687 512.804C149.698 512.729 149.694 512.653 149.676 512.58C149.657 512.506 149.624 512.437 149.579 512.376C149.534 512.316 149.477 512.264 149.412 512.225C149.347 512.186 149.275 512.161 149.2 512.15C149.125 512.139 149.049 512.143 148.975 512.161C148.902 512.179 148.833 512.212 148.772 512.257L142.147 517.178C142.07 517.235 142.009 517.311 141.968 517.397C141.928 517.484 141.909 517.58 141.915 517.675C141.921 517.771 141.95 517.864 142.001 517.945C142.051 518.027 142.121 518.094 142.204 518.142L149.091 522.09C149.22 522.164 149.374 522.185 149.519 522.148Z" fill="#57DEC6"/>
<path d="M159.349 525.474C159.405 525.46 159.458 525.437 159.507 525.407C159.572 525.368 159.628 525.316 159.673 525.255C159.718 525.194 159.75 525.124 159.768 525.051C159.786 524.977 159.789 524.9 159.778 524.826C159.766 524.751 159.74 524.679 159.7 524.614L150.286 509.135C150.206 509.005 150.077 508.912 149.929 508.876C149.78 508.841 149.624 508.865 149.493 508.945C149.363 509.024 149.269 509.152 149.233 509.3C149.197 509.449 149.22 509.605 149.299 509.736L158.714 525.215C158.778 525.32 158.875 525.402 158.989 525.449C159.103 525.495 159.229 525.504 159.349 525.474Z" fill="#57DEC6"/>
<path d="M890.604 460.513H787.861V550.557H890.604V460.513Z" fill="#3F3D56"/>
<path d="M905.832 334.74C903.927 346.028 905.6 357.63 910.616 367.921C912.473 371.706 914.773 376.265 912.512 379.823C911.877 380.713 911.052 381.449 910.096 381.979C909.141 382.508 908.079 382.818 906.989 382.884C904.807 383 902.623 382.717 900.543 382.049" fill="#CCD6F6"/>
<path d="M815.567 300.049C817.479 300.049 819.03 298.757 819.03 297.163C819.03 295.569 817.479 294.277 815.567 294.277C813.654 294.277 812.104 295.569 812.104 297.163C812.104 298.757 813.654 300.049 815.567 300.049Z" fill="#3F3D56"/>
<path d="M828.265 301.204C830.178 301.204 831.728 299.912 831.728 298.318C831.728 296.724 830.178 295.432 828.265 295.432C826.352 295.432 824.802 296.724 824.802 298.318C824.802 299.912 826.352 301.204 828.265 301.204Z" fill="#3F3D56"/>
<path d="M840.964 306.976C842.876 306.976 844.427 305.684 844.427 304.09C844.427 302.496 842.876 301.204 840.964 301.204C839.051 301.204 837.5 302.496 837.5 304.09C837.5 305.684 839.051 306.976 840.964 306.976Z" fill="#3F3D56"/>
<path d="M855.971 303.513C857.884 303.513 859.434 302.22 859.434 300.627C859.434 299.033 857.884 297.74 855.971 297.74C854.058 297.74 852.508 299.033 852.508 300.627C852.508 302.22 854.058 303.513 855.971 303.513Z" fill="#3F3D56"/>
<path d="M540.73 358.212C557.55 353.543 576.285 358.547 589.283 370.01C596.296 376.238 601.443 384.29 604.15 393.27C607.469 403.958 608.018 415.233 608.365 426.343C608.75 438.628 609.083 450.915 609.441 463.2C609.783 474.914 609.823 486.683 610.604 498.378C611.26 508.191 612.831 518.378 618.082 526.889C622.951 534.78 630.644 540.108 639.337 543.045C648.149 546.022 657.647 546.715 666.89 546.654C677.647 546.62 688.386 545.769 699.015 544.11C719.202 540.876 739.142 532.628 751.472 515.609C757.148 507.882 760.338 498.61 760.618 489.025C760.878 477.856 757.309 467.039 753.401 456.723C749.597 446.684 745.483 436.793 743.075 426.297C740.839 416.475 739.774 406.422 739.901 396.349C740.107 376.196 744.937 356.36 754.019 338.369C758.615 329.128 764.446 320.555 771.351 312.885C778.472 305.136 787.29 298.74 797.775 296.643C802.892 295.583 808.192 295.796 813.207 297.264C815.347 297.904 816.261 294.563 814.128 293.924C803.74 290.814 792.455 293.179 783.246 298.577C774.19 303.885 767.034 311.848 760.961 320.291C749.292 336.844 741.523 355.825 738.239 375.81C734.954 395.794 736.238 416.263 741.995 435.681C748.158 455.87 761.563 476.886 755.804 498.736C750.764 517.861 733.303 530.858 715.265 536.729C704.322 540.291 692.849 541.798 681.404 542.577C671.733 543.236 661.93 543.655 652.287 542.412C643.43 541.27 634.319 538.563 627.452 532.617C619.924 526.1 616.483 516.735 614.986 507.124C613.292 496.25 613.541 485.037 613.221 474.064L612.13 436.612C611.514 415.459 612.045 392.015 598.282 374.488C592.78 367.658 585.793 362.173 577.852 358.451C569.911 354.728 561.225 352.865 552.456 353.005C548.18 353.103 543.932 353.73 539.81 354.873C539.381 355.007 539.021 355.303 538.806 355.697C538.591 356.092 538.538 356.554 538.657 356.987C538.776 357.42 539.059 357.79 539.446 358.019C539.833 358.247 540.293 358.317 540.73 358.212Z" fill="#3F3D56"/>
<path d="M294.877 336.303C297.329 353.746 306.605 369.503 320.667 380.111C334.73 390.719 352.428 395.31 369.874 392.876C387.32 390.442 403.086 381.182 413.708 367.13C424.33 353.079 428.94 335.385 426.523 317.936L426.392 316.994C423.58 299.781 414.116 284.363 400.039 274.065C385.962 263.768 368.402 259.417 351.146 261.95C333.89 264.484 318.321 273.699 307.798 287.608C297.276 301.517 292.642 319.005 294.898 336.3L294.877 336.303Z" fill="#FFB6B6"/>
<path d="M353.466 391.258C350.03 384.336 346.499 376.905 347.432 369.234C348.365 361.563 355.861 354.209 363.252 356.463C367.672 357.811 371.024 362.159 375.64 362.367C381.991 362.653 385.608 355.373 387.565 349.323L395.533 324.685C410.902 336.759 391.437 324.101 410.476 319.681C417.945 317.947 425.485 314.59 429.848 308.285C434.212 301.98 434.153 292.223 428.123 287.487C425.166 285.164 421.239 284.291 418.412 281.812C416.659 280.274 415.447 278.213 414.957 275.933C414.466 273.653 414.723 271.275 415.688 269.152C416.654 267.029 418.277 265.273 420.318 264.145C422.359 263.016 424.709 262.575 427.021 262.885L406.742 260.42L412.745 249.476C408.405 252.921 402.35 253.403 396.893 252.439C391.436 251.476 386.292 249.247 380.952 247.768C355.316 240.665 325.591 253.264 312.867 276.626C307.874 274.977 302.497 274.884 297.449 276.36C292.402 277.836 287.922 280.811 284.603 284.89C279.199 291.795 277.755 300.991 277.574 309.757C277.237 327.042 281.063 344.154 288.728 359.649C291.117 364.465 293.941 369.189 298.002 372.711C302.063 376.234 347.955 395.748 353.252 394.828" fill="#2F2E41"/>
<path d="M832.883 345.649C832.892 348.645 832.508 351.63 831.74 354.526V354.538C831.728 354.595 831.705 354.653 831.694 354.711C829.362 363.288 823.797 369.314 817.298 369.314C810.833 369.314 805.292 363.334 802.925 354.826C802.764 354.237 802.625 353.649 802.498 353.037C802.337 352.356 802.21 351.652 802.106 350.924C802.014 350.347 801.944 349.758 801.887 349.158C801.806 348.327 801.748 347.496 801.736 346.63V346.618C801.713 346.295 801.713 345.972 801.713 345.649V345.36L801.725 345.348C801.726 343.885 801.823 342.424 802.014 340.973C802.094 340.361 802.187 339.773 802.302 339.184C802.441 338.468 802.591 337.764 802.775 337.071C802.926 336.46 803.099 335.871 803.283 335.282C803.537 334.497 803.814 333.735 804.126 333.008C804.322 332.534 804.53 332.073 804.738 331.623C807.578 325.781 812.149 321.983 817.298 321.983C824.421 321.983 830.424 329.244 832.282 339.149C832.305 339.299 832.34 339.449 832.352 339.599V339.611C832.707 341.604 832.885 343.624 832.883 345.649Z" fill="#CCD6F6"/>
<path d="M804.888 332.131C804.881 332.342 804.802 332.545 804.663 332.705C804.524 332.865 804.335 332.972 804.126 333.008C804.322 332.535 804.53 332.073 804.738 331.623C804.834 331.775 804.886 331.951 804.888 332.131Z" fill="#57DEC6"/>
<path d="M818.537 331.079H808.378C807.883 331.079 807.481 331.481 807.481 331.976C807.481 332.472 807.883 332.873 808.378 332.873H818.537C819.033 332.873 819.434 332.472 819.434 331.976C819.434 331.481 819.033 331.079 818.537 331.079Z" fill="#57DEC6"/>
<path d="M804.576 336.171C804.576 336.409 804.481 336.638 804.312 336.807C804.143 336.976 803.915 337.071 803.676 337.071H802.775C802.925 336.459 803.099 335.871 803.283 335.282H803.676C803.913 335.281 804.14 335.375 804.309 335.541C804.477 335.708 804.574 335.934 804.576 336.171Z" fill="#57DEC6"/>
<path d="M808.979 335.279H807.345C806.849 335.279 806.447 335.681 806.447 336.176C806.447 336.672 806.849 337.073 807.345 337.073H808.979C809.475 337.073 809.876 336.672 809.876 336.176C809.876 335.681 809.475 335.279 808.979 335.279Z" fill="#57DEC6"/>
<path d="M823.522 335.129H813.363C812.868 335.129 812.466 335.531 812.466 336.027C812.466 336.522 812.868 336.924 813.363 336.924H823.522C824.017 336.924 824.419 336.522 824.419 336.027C824.419 335.531 824.017 335.129 823.522 335.129Z" fill="#57DEC6"/>
<path d="M808.667 339.329H807.033C806.537 339.329 806.135 339.731 806.135 340.226C806.135 340.722 806.537 341.124 807.033 341.124H808.667C809.163 341.124 809.564 340.722 809.564 340.226C809.564 339.731 809.163 339.329 808.667 339.329Z" fill="#57DEC6"/>
<path d="M813.963 339.329H812.329C811.833 339.329 811.432 339.731 811.432 340.226C811.432 340.722 811.833 341.124 812.329 341.124H813.963C814.459 341.124 814.861 340.722 814.861 340.226C814.861 339.731 814.459 339.329 813.963 339.329Z" fill="#57DEC6"/>
<path d="M804.484 340.073C804.484 340.311 804.389 340.54 804.22 340.709C804.051 340.878 803.822 340.973 803.584 340.973H802.014C802.094 340.361 802.187 339.773 802.302 339.184H803.584C803.701 339.183 803.818 339.205 803.927 339.249C804.036 339.293 804.135 339.358 804.219 339.441C804.302 339.523 804.369 339.622 804.415 339.73C804.46 339.839 804.484 339.955 804.484 340.073Z" fill="#57DEC6"/>
<path d="M828.506 339.18H818.348C817.852 339.18 817.45 339.581 817.45 340.077C817.45 340.572 817.852 340.974 818.348 340.974H828.506C829.002 340.974 829.404 340.572 829.404 340.077C829.404 339.581 829.002 339.18 828.506 339.18Z" fill="#57DEC6"/>
<path d="M804.888 345.983C804.888 346.101 804.864 346.217 804.818 346.326C804.773 346.434 804.706 346.532 804.623 346.615C804.539 346.698 804.44 346.763 804.331 346.807C804.222 346.851 804.105 346.873 803.988 346.872H802.36C802.129 346.873 801.906 346.787 801.736 346.63V346.618C801.713 346.295 801.713 345.972 801.713 345.648V345.36L801.725 345.348C801.808 345.264 801.907 345.197 802.016 345.152C802.125 345.106 802.242 345.083 802.36 345.083H803.988C804.226 345.083 804.455 345.178 804.624 345.347C804.793 345.516 804.888 345.745 804.888 345.983Z" fill="#CCD6F6"/>
<path d="M818.537 344.932H808.378C807.883 344.932 807.481 345.334 807.481 345.829C807.481 346.325 807.883 346.726 808.378 346.726H818.537C819.033 346.726 819.434 346.325 819.434 345.829C819.434 345.334 819.033 344.932 818.537 344.932Z" fill="#CCD6F6"/>
<path d="M804.576 350.024C804.576 350.263 804.481 350.491 804.312 350.66C804.144 350.829 803.915 350.924 803.676 350.924H802.106C802.014 350.347 801.944 349.758 801.887 349.158C801.938 349.139 801.993 349.131 802.048 349.135H803.676C803.913 349.135 804.14 349.228 804.309 349.394C804.478 349.561 804.574 349.787 804.576 350.024Z" fill="#CCD6F6"/>
<path d="M808.979 349.132H807.345C806.849 349.132 806.447 349.534 806.447 350.029C806.447 350.525 806.849 350.927 807.345 350.927H808.979C809.475 350.927 809.876 350.525 809.876 350.029C809.876 349.534 809.475 349.132 808.979 349.132Z" fill="#CCD6F6"/>
<path d="M823.522 348.982H813.363C812.868 348.982 812.466 349.384 812.466 349.879C812.466 350.375 812.868 350.777 813.363 350.777H823.522C824.017 350.777 824.419 350.375 824.419 349.879C824.419 349.384 824.017 348.982 823.522 348.982Z" fill="#CCD6F6"/>
<path d="M808.667 353.182H807.033C806.537 353.182 806.135 353.584 806.135 354.08C806.135 354.575 806.537 354.977 807.033 354.977H808.667C809.163 354.977 809.564 354.575 809.564 354.08C809.564 353.584 809.163 353.182 808.667 353.182Z" fill="#CCD6F6"/>
<path d="M813.963 353.182H812.329C811.833 353.182 811.432 353.584 811.432 354.08C811.432 354.575 811.833 354.977 812.329 354.977H813.963C814.459 354.977 814.861 354.575 814.861 354.08C814.861 353.584 814.459 353.182 813.963 353.182Z" fill="#CCD6F6"/>
<path d="M804.484 353.926C804.484 354.164 804.389 354.393 804.22 354.562C804.051 354.731 803.822 354.826 803.584 354.826H802.926C802.764 354.237 802.626 353.649 802.499 353.037H803.584C803.701 353.036 803.818 353.058 803.927 353.102C804.036 353.146 804.135 353.211 804.219 353.294C804.303 353.376 804.369 353.475 804.415 353.583C804.46 353.692 804.484 353.808 804.484 353.926Z" fill="#CCD6F6"/>
<path d="M828.506 353.033H818.348C817.852 353.033 817.45 353.434 817.45 353.93C817.45 354.425 817.852 354.827 818.348 354.827H828.506C829.002 354.827 829.404 354.425 829.404 353.93C829.404 353.434 829.002 353.033 828.506 353.033Z" fill="#CCD6F6"/>
</g>
<defs>
<clipPath id="clip0_145_18">
<rect width="852.904" height="665.254" fill="white" transform="translate(115.982 0.841858)"/>
</clipPath>
</defs>
</svg>
