<svg id="Layer_1" data-name="Layer 1" xmlns="http://www.w3.org/2000/svg" xmlns:xlink="http://www.w3.org/1999/xlink" viewBox="0 0 389.32 336"><defs><style>.cls-1{fill:none;}.cls-11,.cls-13,.cls-2{fill:#57dec6;}.cls-2{fill-opacity:0.6;}.cls-3{clip-path:url(#clip-path);}.cls-4{fill:#8892b0;}.cls-5{fill:#57dec9;}.cls-12,.cls-6{fill:#3f3d56;}.cls-14,.cls-7{fill:#ff6584;}.cls-8{fill:#ccc;}.cls-9{fill:#ffb8b8;}.cls-10{fill:#2f2e41;}.cls-12,.cls-13,.cls-14{opacity:0.74;}.cls-12,.cls-13,.cls-14,.cls-16{isolation:isolate;}.cls-15{fill:#ccd6f6;}.cls-16{opacity:0.21;}</style><clipPath id="clip-path"><rect class="cls-1" x="58" width="331.32" height="322"/></clipPath></defs><circle class="cls-2" cx="8.5" cy="171.5" r="8.5"/><circle class="cls-2" cx="8.5" cy="210.5" r="8.5"/><circle class="cls-2" cx="8.5" cy="249.5" r="8.5"/><circle class="cls-2" cx="8.5" cy="288.5" r="8.5"/><circle class="cls-2" cx="8.5" cy="327.5" r="8.5"/><circle class="cls-2" cx="48.5" cy="171.5" r="8.5"/><circle class="cls-2" cx="48.5" cy="210.5" r="8.5"/><circle class="cls-2" cx="48.5" cy="249.5" r="8.5"/><circle class="cls-2" cx="48.5" cy="288.5" r="8.5"/><circle class="cls-2" cx="48.5" cy="327.5" r="8.5"/><circle class="cls-2" cx="88.5" cy="171.5" r="8.5"/><circle class="cls-2" cx="88.5" cy="210.5" r="8.5"/><circle class="cls-2" cx="88.5" cy="249.5" r="8.5"/><circle class="cls-2" cx="88.5" cy="288.5" r="8.5"/><circle class="cls-2" cx="88.5" cy="327.5" r="8.5"/><circle class="cls-2" cx="128.5" cy="171.5" r="8.5"/><circle class="cls-2" cx="128.5" cy="210.5" r="8.5"/><circle class="cls-2" cx="128.5" cy="249.5" r="8.5"/><circle class="cls-2" cx="128.5" cy="288.5" r="8.5"/><circle class="cls-2" cx="128.5" cy="327.5" r="8.5"/><circle class="cls-2" cx="168.5" cy="171.5" r="8.5"/><circle class="cls-2" cx="168.5" cy="210.5" r="8.5"/><circle class="cls-2" cx="168.5" cy="249.5" r="8.5"/><circle class="cls-2" cx="168.5" cy="288.5" r="8.5"/><circle class="cls-2" cx="168.5" cy="327.5" r="8.5"/><circle class="cls-2" cx="208.5" cy="171.5" r="8.5"/><circle class="cls-2" cx="208.5" cy="210.5" r="8.5"/><circle class="cls-2" cx="208.5" cy="249.5" r="8.5"/><circle class="cls-2" cx="208.5" cy="288.5" r="8.5"/><circle class="cls-2" cx="208.5" cy="327.5" r="8.5"/><circle class="cls-2" cx="248.5" cy="171.5" r="8.5"/><circle class="cls-2" cx="248.5" cy="210.5" r="8.5"/><circle class="cls-2" cx="248.5" cy="249.5" r="8.5"/><circle class="cls-2" cx="248.5" cy="288.5" r="8.5"/><circle class="cls-2" cx="248.5" cy="327.5" r="8.5"/><g class="cls-3"><path class="cls-4" d="M369.71,88.87A157.93,157.93,0,0,0,359.4,72.7q-3.94-5.45-8.35-10.53h0a158.34,158.34,0,0,0-17.27-17.09q-1.9-1.62-3.85-3.16a157.38,157.38,0,0,0-38.67-22.6l.13,20.32,1.32,231.58H177.4L170.92,40.08l.48-20A157.29,157.29,0,0,0,80.29,204.8,151.72,151.72,0,0,0,85.5,221c.73,1.92,1.51,3.83,2.32,5.73.39.92.79,1.83,1.21,2.74.53,1.19,1.09,2.38,1.65,3.55.44.92.9,1.84,1.36,2.74.6,1.2,1.22,2.38,1.86,3.56.49.92,1,1.83,1.51,2.74a157.74,157.74,0,0,0,31.36,39.23q5.34,4.83,11.11,9.17a157.07,157.07,0,0,0,188.74,0q3.15-2.36,6.15-4.87c1.34-1.11,2.65-2.23,3.93-3.39l1-.91a157.87,157.87,0,0,0,29.39-35.84,155.32,155.32,0,0,0,8-15.11c.62-1.36,1.23-2.74,1.82-4.13a154,154,0,0,0,6.82-19.6c.28-1,.56-2.07.82-3.11h0c0-.18.09-.36.13-.54.28-1.1.54-2.2.79-3.3h0c.8-3.55,1.49-7.15,2-10.78l.21-1.4c0-.17.05-.34.07-.51h0q.59-4.22,1-8.49.57-6.7.58-13.58A156.39,156.39,0,0,0,369.71,88.87Z"/><path class="cls-5" d="M354.28,259.74c9.3-12.56,12.87-30.25,5.64-44.1a72,72,0,0,1-34.09,35.8c-5.88,2.88-12.73,5.48-15.45,11.44-1.7,3.71-1.37,8.09,0,11.93s3.68,7.27,6,10.64l.12,1C330.9,280.47,345,272.31,354.28,259.74Z"/><path class="cls-6" d="M359.61,215.75a61.46,61.46,0,0,1-12.8,35.63,26.36,26.36,0,0,1-5.94,5.8,15.16,15.16,0,0,1-7.6,2.5c-2.52.18-5.13.08-7.56.87a9.11,9.11,0,0,0-3.34,2,9.25,9.25,0,0,0-2.23,3.19c-1.35,3-1.55,6.26-1.63,9.48-.09,3.58-.13,7.29-1.82,10.54-.2.39.42.69.62.29,2.94-5.65,1-12.26,2.78-18.2.82-2.78,2.47-5.32,5.24-6.43,2.42-1,5.11-.87,7.67-1a16.2,16.2,0,0,0,7.52-2.16,24.64,24.64,0,0,0,6.14-5.56A59.64,59.64,0,0,0,356,236.52a62.5,62.5,0,0,0,4.29-20.83C360.32,215.24,359.63,215.31,359.61,215.75Z"/><path class="cls-6" d="M349.55,248.24a9.23,9.23,0,0,0,11.76-2.16c.28-.35-.24-.8-.52-.45a8.56,8.56,0,0,1-10.94,2C349.46,247.39,349.17,248,349.55,248.24Z"/><path class="cls-6" d="M334.56,259.76a17.77,17.77,0,0,1,1.32-12.9c.2-.4-.42-.69-.63-.3A18.51,18.51,0,0,0,333.92,260C334,260.42,334.68,260.18,334.56,259.76Z"/><path class="cls-6" d="M357.71,229.91a5.12,5.12,0,0,1-2.16-1.37,5.28,5.28,0,0,1-1.26-2.23c-.11-.43-.76-.19-.65.23a5.89,5.89,0,0,0,3.77,4,.36.36,0,0,0,.46-.16.36.36,0,0,0,0-.27A.35.35,0,0,0,357.71,229.91Z"/><path class="cls-5" d="M308.17,204.61c.07.27.13.54.19.82a69.69,69.69,0,0,1,1.64,11c0,.29,0,.58.05.87a72.35,72.35,0,0,1-3.46,26.49,71,71,0,0,1-4.09,9.89c-2.23,4.41-5,9-5.61,13.75a12.3,12.3,0,0,0-.12,1.49l18.45,17.57.18.06.71.74.28-.49c.06-.09.11-.19.16-.28l.11-.18,0-.06c0-.05.06-.11.1-.15l1.57-2.81h0a103.79,103.79,0,0,0,9.47-22.59c.06-.24.13-.48.19-.72a67.38,67.38,0,0,0,1.94-10.8c.19-2,.27-4,.26-6A49.33,49.33,0,0,0,327.65,228c-3.29-9.8-9.67-18.44-18.78-23C308.64,204.84,308.41,204.72,308.17,204.61Z"/><path class="cls-6" d="M308,204.88A61.57,61.57,0,0,1,319.22,241a26.25,26.25,0,0,1-1.25,8.21,15.11,15.11,0,0,1-4.56,6.57c-1.91,1.67-4.05,3.15-5.52,5.25a9.33,9.33,0,0,0-1.32,7.5c.71,3.19,2.53,5.93,4.41,8.55,2.07,2.91,4.28,5.9,4.89,9.51.08.44.75.3.68-.14-1.07-6.28-6.57-10.41-8.75-16.21-1-2.71-1.23-5.74.31-8.29,1.35-2.23,3.56-3.76,5.51-5.43a16.22,16.22,0,0,0,4.7-6.26,24.54,24.54,0,0,0,1.56-8.13,59.79,59.79,0,0,0-2.26-18.53,62.45,62.45,0,0,0-9.12-19.22C308.25,204.06,307.74,204.53,308,204.88Z"/><path class="cls-6" d="M319.52,236.88a9.23,9.23,0,0,0,8.09-8.8c0-.44-.68-.49-.69,0a8.54,8.54,0,0,1-7.54,8.17C318.94,236.26,319.08,236.93,319.52,236.88Z"/><path class="cls-6" d="M314.49,255.11A17.75,17.75,0,0,1,307.77,244c-.08-.44-.75-.3-.68.14a18.52,18.52,0,0,0,7,11.52C314.46,256,314.84,255.38,314.49,255.11Z"/><path class="cls-6" d="M315,217.34a5.25,5.25,0,0,1-2.55.21,5.31,5.31,0,0,1-2.34-1c-.35-.27-.72.31-.38.58a5.84,5.84,0,0,0,5.41.91.34.34,0,0,0,.22-.15.31.31,0,0,0,0-.25.35.35,0,0,0-.41-.27Z"/><path class="cls-5" d="M65.33,189.39c-8.24-13.27-10.37-31.2-2-44.42a72,72,0,0,0,31.06,38.45c5.63,3.35,12.25,6.5,14.48,12.66,1.38,3.84.71,8.18-1,11.9s-4.26,6.94-6.82,10.11l-.2,1C87,212,73.58,202.67,65.33,189.39Z"/><path class="cls-6" d="M63.59,145.1a61.57,61.57,0,0,0,9.87,36.56,26.32,26.32,0,0,0,5.45,6.27A15.24,15.24,0,0,0,86.28,191c2.5.38,5.1.49,7.47,1.47a9.38,9.38,0,0,1,3.16,2.27,9.2,9.2,0,0,1,2,3.36c1.1,3.08,1,6.37.85,9.58-.2,3.57-.46,7.28,1,10.66.17.4-.48.65-.65.24-2.46-5.88,0-12.31-1.29-18.38a9.39,9.39,0,0,0-4.7-6.83c-2.33-1.17-5-1.28-7.55-1.64A16.26,16.26,0,0,1,79.18,189a24.27,24.27,0,0,1-5.67-6,59.59,59.59,0,0,1-8-16.85A62.63,62.63,0,0,1,62.91,145C62.94,144.55,63.62,144.67,63.59,145.1Z"/><path class="cls-6" d="M71,178.3a9.23,9.23,0,0,1-11.54-3.1c-.25-.37.3-.78.55-.41a8.56,8.56,0,0,0,10.75,2.87C71.14,177.47,71.38,178.11,71,178.3Z"/><path class="cls-6" d="M85,191a17.82,17.82,0,0,0-.25-13c-.17-.41.47-.65.64-.24a18.48,18.48,0,0,1,.24,13.49C85.46,191.71,84.83,191.42,85,191Z"/><path class="cls-6" d="M64.34,159.37a5.23,5.23,0,0,0,3.7-3.31c.15-.41.78-.13.63.29a5.88,5.88,0,0,1-1.59,2.34A5.8,5.8,0,0,1,64.59,160a.39.39,0,0,1-.45-.2.42.42,0,0,1,0-.27A.37.37,0,0,1,64.34,159.37Z"/><path class="cls-5" d="M115.77,138.19c-.09.26-.17.52-.25.79A68.7,68.7,0,0,0,113,149.86c0,.28-.09.57-.13.86a72.62,72.62,0,0,0,1.3,26.68,69.89,69.89,0,0,0,3.27,10.19c1.86,4.58,4.25,9.38,4.48,14.16a12.51,12.51,0,0,1,0,1.5l-19.82,16-.19.05-.76.67-.24-.5-.14-.3-.09-.18a.33.33,0,0,0,0-.06c0-.06,0-.12-.08-.17-.46-1-.91-2-1.35-2.92v0a103,103,0,0,1-7.6-23.28c0-.24-.1-.49-.13-.74a66.65,66.65,0,0,1-1.06-10.92c0-2,0-4,.23-6a49.74,49.74,0,0,1,3.8-15c4.08-9.5,11.15-17.58,20.6-21.43Z"/><path class="cls-6" d="M115.93,138.47A61.53,61.53,0,0,0,101.8,173.6a26.47,26.47,0,0,0,.57,8.28,15.19,15.19,0,0,0,4,6.92c1.76,1.82,3.78,3.47,5.07,5.68a9.21,9.21,0,0,1,1.17,3.72,9.37,9.37,0,0,1-.46,3.86c-1,3.12-3,5.71-5.09,8.17-2.3,2.73-4.75,5.53-5.65,9.08-.11.43-.77.23-.66-.2,1.57-6.17,7.39-9.84,10-15.44,1.23-2.62,1.69-5.62.36-8.29-1.17-2.34-3.24-4-5-5.86A16.23,16.23,0,0,1,102,182.9a24.35,24.35,0,0,1-.9-8.23,59.85,59.85,0,0,1,3.75-18.28A62.75,62.75,0,0,1,115.46,138C115.74,137.63,116.21,138.14,115.93,138.47Z"/><path class="cls-6" d="M101.84,169.43A9.26,9.26,0,0,1,94.49,160a.41.41,0,0,1,.11-.24.36.36,0,0,1,.24-.09.35.35,0,0,1,.24.1.31.31,0,0,1,.1.24,8.57,8.57,0,0,0,6.86,8.76C102.47,168.86,102.27,169.52,101.84,169.43Z"/><path class="cls-6" d="M105.37,188a17.75,17.75,0,0,0,7.6-10.51c.11-.42.77-.23.66.2a18.45,18.45,0,0,1-7.93,10.92C105.33,188.85,105,188.24,105.37,188Z"/><path class="cls-6" d="M107.94,150.32a5.3,5.3,0,0,0,2.52.41,5.23,5.23,0,0,0,2.42-.83c.37-.24.7.36.33.61a5.88,5.88,0,0,1-5.46.47.39.39,0,0,1-.21-.17.39.39,0,0,1,0-.26.34.34,0,0,1,.17-.2A.3.3,0,0,1,107.94,150.32Z"/><path class="cls-7" d="M218.39,53.88a21.83,21.83,0,1,0-21.82-21.82A21.82,21.82,0,0,0,218.39,53.88Z"/><path class="cls-5" d="M285.2,30.92A79,79,0,0,0,279,25a47.56,47.56,0,0,0-14.2-8.6,33.11,33.11,0,0,0-6.09-1.6l-.75-.12h-.05l-.12,0c-.51-.06-1-.12-1.54-.15a26.24,26.24,0,0,0-8.23.74,27,27,0,0,0-4.56,1.58,41.8,41.8,0,0,0-4.27,2.42,23.62,23.62,0,0,1-2.27,1.23,28.22,28.22,0,0,1-7.16,2.29,31.9,31.9,0,0,1-5.07.5,12.1,12.1,0,0,0-4.26.62,10.18,10.18,0,0,0-6.23,6.74.58.58,0,0,0,0,.41.68.68,0,0,0,.26.32c.38.27.75.58,1.15.82a3.59,3.59,0,0,0,1.11.3c.63.14,1.27.27,1.9.39q3.5.69,7,1.23,7.09,1.08,14.27,1.51H240a159.57,159.57,0,0,0,16.22.16l2.46-.12c3.41-.19,6.81-.5,10.2-.91q4.71-.57,9.38-1.42c2.23-.4,4.44-.85,6.65-1.35a.62.62,0,0,0,.28-.17.56.56,0,0,0,.16-.29.62.62,0,0,0,0-.33A.57.57,0,0,0,285.2,30.92Z"/><path class="cls-5" d="M239.85,60a70.63,70.63,0,0,0-10.4-9.14,45.34,45.34,0,0,0-3.84-2.45,39.52,39.52,0,0,0-5-2.46q-.59-.24-1.17-.45a32.19,32.19,0,0,0-6.84-1.72h-.05l-.12,0a24.3,24.3,0,0,0-3.41-.21q-1.23,0-2.46.12a27.2,27.2,0,0,0-3.9.68c-.64.15-1.27.34-1.89.55a26.08,26.08,0,0,0-2.66,1l0,0a40,40,0,0,0-4.23,2.4l-.09.06a26.75,26.75,0,0,1-4.88,2.28,29.7,29.7,0,0,1-4.47,1.18,31.78,31.78,0,0,1-5.06.5,12.34,12.34,0,0,0-4.27.61,10.35,10.35,0,0,0-3.91,2.64,10.13,10.13,0,0,0-2.32,4.11.71.71,0,0,0,0,.41.68.68,0,0,0,.26.32c.38.27.75.57,1.15.81a3.34,3.34,0,0,0,1.12.31l1.89.39c2.33.46,4.68.87,7,1.22q4.84.73,9.72,1.18c1.54.14,3.09.26,4.63.35q5.94.36,11.89.28,1.23,0,2.46-.06,7.29-.21,14.54-1.09a161,161,0,0,0,16-2.77.77.77,0,0,0,.29-.17.75.75,0,0,0,.16-.29.62.62,0,0,0,0-.33A.75.75,0,0,0,239.85,60Z"/><path class="cls-8" d="M185.45,1.45l19.23,265.66-38.45,3.41V4.83C170.81,1.25,177.39.69,185.45,1.45Z"/><path class="cls-8" d="M280.35,1.45,261.12,267.11l38.45,3.41V4.83C295,1.25,288.42.69,280.35,1.45Z"/><path class="cls-8" d="M300.48,4.94A7.42,7.42,0,0,0,293.81,0H171.58c-4.08,0-7.4,3.91-7.4,8.73v264a9.44,9.44,0,0,0,2.55,6.58,7,7,0,0,0,3.2,1.92,5.76,5.76,0,0,0,1.65.22H293.81a5.76,5.76,0,0,0,1.65-.22c3.29-.88,5.75-4.36,5.75-8.5V8.73A10.26,10.26,0,0,0,300.48,4.94Zm-1.72,267.84c0,3.21-2.22,5.83-4.95,5.83H171.58a5.16,5.16,0,0,1-4.76-4.25,7,7,0,0,1-.18-1.58V8.73c0-3.22,2.21-5.83,4.94-5.83H293.81a4.29,4.29,0,0,1,1.47.26,5.81,5.81,0,0,1,3.48,5.57Z"/><path class="cls-8" d="M300,80.26H165.41v2.46H300Z"/><path class="cls-8" d="M300,29.6H165.41v2.45H300Z"/><path class="cls-8" d="M300,121.17H165.41v2.45H300Z"/><path class="cls-8" d="M209.08,1.1h-2.45V155.93h2.45Z"/><path class="cls-8" d="M258.77,1.1h-2.46V155.93h2.46Z"/><path class="cls-8" d="M315.32,266.17H154.16A11,11,0,0,0,148,286.36a11.14,11.14,0,0,0,6.18,1.9H315.32a11.12,11.12,0,0,0,5.49-1.47,11,11,0,0,0,4-4,10.52,10.52,0,0,0,.72-1.47,10.94,10.94,0,0,0,.8-4.11,11,11,0,0,0-11.05-11Z"/><path class="cls-8" d="M300,150.21H166.23v8.18H300Z"/><path class="cls-8" d="M231.88,147.75h2.45a4.51,4.51,0,0,1,4.5,4.5H227.38a4.4,4.4,0,0,1,.34-1.72,4.52,4.52,0,0,1,1-1.46,4.42,4.42,0,0,1,1.46-1A4.59,4.59,0,0,1,231.88,147.75Z"/><path class="cls-9" d="M235.46,173.28a25.35,25.35,0,1,0-25.34-25.35A25.35,25.35,0,0,0,235.46,173.28Z"/><path class="cls-10" d="M207.19,123.54c.19-2.91,2.11-5.89,8.23-7.44,0,0,10.5-13.42,24.76-6.39,0,0,6.92-1.18,12,6,0,0,5.09-3,7.23,2.31,0,0,6,10.84,3.77,21.9s-3.32,12.44-3.32,12.44,2.8-22.87-13.32-21.29-29.09-4.08-32.74,8.33c-3,10.3-2.64,15.65-2.64,15.65s-10.14-10.27-6.69-18.37A40.17,40.17,0,0,0,207.19,123.54Z"/><path class="cls-11" d="M166.53,286.46H306.74c-.94-10.7-1.55-51.58-1.55-54.27,0-11.87-9.71-24.82-9.71-24.82L292,205.45l-29-9.06-7.52-9.76a8.32,8.32,0,0,0-6.69-3.26l-23.73.17a8.43,8.43,0,0,0-5.62,2.23l-14.7,13.64L183.17,209.7l0,0-.22.17-3.2,2.3-2.06,1.49s-5.39,6.48-9.71,25.9C167.29,242.44,166.84,280.25,166.53,286.46Z"/><path class="cls-8" d="M339.19,281.32l-1,.91q-1.94,1.72-3.93,3.39-3,2.52-6.15,4.87H139.35q-5.78-4.32-11.11-9.17Z"/><path class="cls-10" d="M270,283.52H200.62l1.47-7h66.45Z"/><path class="cls-6" d="M332.78,253.42h-18a2.66,2.66,0,0,0-1.18.25,3,3,0,0,0-1,.74,3.84,3.84,0,0,0-.76-.08,4.3,4.3,0,0,0-3,1.26,4.27,4.27,0,0,0,1.39,7,4.21,4.21,0,0,0,1.64.33,4.31,4.31,0,0,0,1.87-.43l.3,3.7,1.19,14.62a3.54,3.54,0,0,0,.23.53,2.81,2.81,0,0,0,1,1.07,2.78,2.78,0,0,0,1.43.4h11.74a2.82,2.82,0,0,0,1.44-.4,2.88,2.88,0,0,0,1-1.07,3.49,3.49,0,0,0,.22-.53l3.16-23.72a2.76,2.76,0,0,0,.08-1.31,2.8,2.8,0,0,0-1.51-2A2.79,2.79,0,0,0,332.78,253.42Zm-21,8.26a3.11,3.11,0,0,1-2.16-.9,3.06,3.06,0,0,1,2.16-5.22H312a2.83,2.83,0,0,0,0,1.5l1.29,4.2A3.15,3.15,0,0,1,311.82,261.68Z"/><path class="cls-6" d="M292,175.8H177.71a3.69,3.69,0,0,0-3.7,3.7v77.12a3.7,3.7,0,0,0,3.7,3.71H292a3.7,3.7,0,0,0,3.7-3.71V179.5a3.69,3.69,0,0,0-3.7-3.7Z"/><path class="cls-10" d="M247.73,237.59H221a1.42,1.42,0,0,0-1,.42,1.46,1.46,0,0,0-.41,1v42.24h29.58V239a1.24,1.24,0,0,0-.1-.54,1.38,1.38,0,0,0-.31-.47,1.48,1.48,0,0,0-.47-.31A1.45,1.45,0,0,0,247.73,237.59Zm-13.28,24a3.16,3.16,0,0,1-2.23-.93,3.2,3.2,0,0,1-.93-2.23v-4.87a3.16,3.16,0,0,1,5.39-2.23,3.22,3.22,0,0,1,.93,2.23v4.87a3.2,3.2,0,0,1-.93,2.23A3.16,3.16,0,0,1,234.45,261.59Z"/><path class="cls-6" d="M219.47,279.91V284a.89.89,0,0,0,.24.57.83.83,0,0,0,.56.23h28.18a.82.82,0,0,0,.8-.8v-4.07Z"/><path class="cls-10" d="M289.57,255.82a1.81,1.81,0,1,0-1.8-1.81A1.81,1.81,0,0,0,289.57,255.82Z"/><path class="cls-10" d="M192.14,251.4a.49.49,0,0,0-.24,0,.54.54,0,0,0-.34.34.49.49,0,0,0-.05.24v3.25a.6.6,0,0,0,.18.44.63.63,0,0,0,.9,0,.65.65,0,0,0,.18-.44V252a.64.64,0,0,0-.05-.24.74.74,0,0,0-.13-.21.57.57,0,0,0-.21-.13A.52.52,0,0,0,192.14,251.4Z"/><path class="cls-10" d="M195.57,251.4a.49.49,0,0,0-.24,0,.54.54,0,0,0-.34.34.49.49,0,0,0-.05.24v3.25a.59.59,0,0,0,.18.44.64.64,0,0,0,.45.19.65.65,0,0,0,.63-.63V252a.64.64,0,0,0,0-.24.6.6,0,0,0-.14-.21.46.46,0,0,0-.2-.13A.52.52,0,0,0,195.57,251.4Z"/><path class="cls-10" d="M199,251.4a.47.47,0,0,0-.24,0,.57.57,0,0,0-.21.13.77.77,0,0,0-.14.21.64.64,0,0,0,0,.24v3.25a.6.6,0,0,0,.18.44.62.62,0,0,0,.89,0,.61.61,0,0,0,.19-.44V252a.64.64,0,0,0,0-.24.6.6,0,0,0-.14-.21.53.53,0,0,0-.2-.13A.52.52,0,0,0,199,251.4Z"/><path class="cls-10" d="M202.43,251.4a.53.53,0,0,0-.25,0,.63.63,0,0,0-.2.13.6.6,0,0,0-.14.21.64.64,0,0,0-.05.24v3.25a.61.61,0,0,0,.19.44.62.62,0,0,0,.89,0,.61.61,0,0,0,.19-.44V252a.64.64,0,0,0-.05-.24.6.6,0,0,0-.14-.21.63.63,0,0,0-.2-.13A.52.52,0,0,0,202.43,251.4Z"/><path class="cls-9" d="M205.16,281.68a9.55,9.55,0,1,0-9.54-9.54A9.55,9.55,0,0,0,205.16,281.68Z"/><path class="cls-9" d="M271.84,283.52A9.55,9.55,0,1,0,262.3,274,9.55,9.55,0,0,0,271.84,283.52Z"/><path class="cls-6" d="M370.36,158.76c-.94-1.55-2.06-3.22-3.81-3.73-2-.59-4.11.58-5.87,1.74A170.68,170.68,0,0,0,345.44,168v.06c3.78-.26,6.93,9.82,10.72,9.56,2.74-.19,6.22-10.74,8.64-12a6.92,6.92,0,0,1,2.85-1.19,4.54,4.54,0,0,1,3.3,1.79c5.24,5.58,6.76,14.11,12.64,19A186.81,186.81,0,0,0,370.36,158.76Z"/><path class="cls-6" d="M380.45,172.32q4.14,7.49,8.79,14.68h0a4.46,4.46,0,0,1-.07.51l-1.11-1.73q-4.17-6.54-7.93-13.34-1.78-3.24-3.48-6.52-1.31-2.53-2.57-5.12l-.7-1.47c-.54-1.17-1.08-2.33-1.65-3.48a9.58,9.58,0,0,0-2.65-3.55,3.6,3.6,0,0,0-1.88-.72,5.15,5.15,0,0,0-2.73.78,87.83,87.83,0,0,0-17.27,11.9,90.16,90.16,0,0,0-14,15.57c-.13.18-.42,0-.29-.17.49-.7,1-1.38,1.5-2.07a90.73,90.73,0,0,1,23.08-21.52c1.49-1,3-1.89,4.57-2.77.78-.44,1.57-.88,2.37-1.29a5.68,5.68,0,0,1,2.51-.78c3,0,4.62,3.4,5.71,5.72.33.73.68,1.46,1,2.19q2,4.14,4.11,8.2Q379.08,169.84,380.45,172.32Z"/><path class="cls-6" d="M346.9,162.56c-.17-.2-.35-.4-.53-.59a15.48,15.48,0,0,0-4.84-4,7.12,7.12,0,0,0-2.94-.69,8.5,8.5,0,0,0-3.06.67,13.69,13.69,0,0,0-1.35.62c-.51.25-1,.52-1.5.8-.93.51-1.84,1.05-2.75,1.61q-2.7,1.67-5.23,3.59c-.88.66-1.73,1.35-2.57,2.06s-1.55,1.34-2.3,2a.17.17,0,0,1-.23-.24l.59-.55c.57-.51,1.14-1,1.72-1.5q1.59-1.33,3.27-2.58c1.73-1.28,3.53-2.48,5.38-3.59.93-.56,1.87-1.09,2.82-1.6l.87-.44a14,14,0,0,1,2.08-.85,7.53,7.53,0,0,1,3.13-.31,8.22,8.22,0,0,1,2.89,1,19.61,19.61,0,0,1,4.79,4.3C347.29,162.48,347.05,162.72,346.9,162.56Z"/><path class="cls-6" d="M333,170a2.17,2.17,0,0,1-1.35-.38c-1.05-.8-1-2.7.08-5.83a6.8,6.8,0,0,1,1.39-2.29,6.45,6.45,0,0,1,2.18-1.54,6,6,0,0,1,4.91,0,2.93,2.93,0,0,1,.4.19,14.26,14.26,0,0,1,2.51,1.78,16.65,16.65,0,0,0,2.1,1.54l.24.15-.23.16C339.32,168,335.29,170,333,170Z"/><path class="cls-6" d="M355.91,145.12a8.44,8.44,0,0,1-8.28-6.81,8.44,8.44,0,1,0,10,6.64A8.63,8.63,0,0,1,355.91,145.12Z"/><path class="cls-12" d="M129.89,158.7a12.6,12.6,0,1,0-12.6-12.6A12.6,12.6,0,0,0,129.89,158.7Z"/><path class="cls-13" d="M142.49,158.7a12.6,12.6,0,1,0-12.6-12.6A12.6,12.6,0,0,0,142.49,158.7Z"/><path class="cls-14" d="M136.3,148.66a12.6,12.6,0,1,0-12.6-12.6A12.6,12.6,0,0,0,136.3,148.66Z"/><path class="cls-6" d="M169.24,132.45l-32.36,10.17.22.7,32.36-10.17Z"/><path class="cls-6" d="M169.45,134.15a1.47,1.47,0,1,0-1.47-1.47A1.47,1.47,0,0,0,169.45,134.15Z"/><path class="cls-6" d="M379.56,198.76a51.12,51.12,0,0,0,6.58,4.23c0,.18-.09.36-.13.54l-.86-.43a80.25,80.25,0,0,1-6.71-4.44,14.64,14.64,0,0,0-3.62-1.82,12.06,12.06,0,0,0-4.14-.48c-5.82.29-10.82,3.76-16.23,5.51a16.49,16.49,0,0,1-8.23.78c-2.77-.54-5.22-2-7.67-3.33s-5-2.64-7.84-2.64a6.82,6.82,0,0,0-5.93,2.95.25.25,0,0,1-.16.12.37.37,0,0,1-.21,0,.26.26,0,0,1-.12-.17.27.27,0,0,1,0-.2,5.5,5.5,0,0,1,1-1.25,8,8,0,0,1,6.12-1.94c2.8.22,5.35,1.55,7.77,2.88s5.19,2.92,8.16,3.23a18.7,18.7,0,0,0,8.54-1.49c5.27-2,10.46-5.33,16.31-5A14.24,14.24,0,0,1,379.56,198.76Z"/><path class="cls-11" d="M149.29,92.58v.75a3.67,3.67,0,0,0-.75-.07h-3.83v8.24a4.61,4.61,0,0,1-4.61,4.61h-5.67v1.27a3.94,3.94,0,0,0,.29,1.48h-.78a4.42,4.42,0,0,1-.25-1.48v-1.27h-3.12v-.74h3.12V97.13a4.61,4.61,0,0,1,4.6-4.61H144V91.24h.74v1.28h3.83A4.56,4.56,0,0,1,149.29,92.58Z"/><path class="cls-6" d="M140.1,86.65H129.85a4.61,4.61,0,0,0-4.6,4.6V101.5a4.61,4.61,0,0,0,4.6,4.61H140.1a4.61,4.61,0,0,0,4.61-4.61V91.24A4.66,4.66,0,0,0,143.35,88,4.59,4.59,0,0,0,140.1,86.65ZM144,101.5a3.86,3.86,0,0,1-3.87,3.87H129.85A3.88,3.88,0,0,1,126,101.5V91.25a3.89,3.89,0,0,1,3.87-3.87H140.1a3.88,3.88,0,0,1,2.73,1.13A3.83,3.83,0,0,1,144,91.24Z"/><path class="cls-6" d="M133.69,105.37v.74h.74v-.74Zm0,0v.74h.74v-.74Zm15.6-12.79a4.56,4.56,0,0,0-.75-.06H138.29a4.61,4.61,0,0,0-4.6,4.61v10.25a4.42,4.42,0,0,0,.25,1.48,4.61,4.61,0,0,0,4.35,3.12h10.25a4.61,4.61,0,0,0,4.61-4.6V97.13a4.63,4.63,0,0,0-3.86-4.55Zm3.12,14.8a3.83,3.83,0,0,1-1.13,2.73,4,4,0,0,1-2.74,1.14H138.29a4,4,0,0,1-2.73-1.14,3.88,3.88,0,0,1-1.13-2.73V97.13a3.86,3.86,0,0,1,3.86-3.87h10.25a3.86,3.86,0,0,1,3.87,3.87Zm-18.72-2v.74h.74v-.74Z"/><path class="cls-11" d="M126.44,201.07H82.9a1.14,1.14,0,0,0-1.14,1.14v2.59A151.72,151.72,0,0,0,87,221h39.47a1.12,1.12,0,0,0,.44-.09,1.15,1.15,0,0,0,.37-.25,1.05,1.05,0,0,0,.25-.37,1.32,1.32,0,0,0,.08-.44V202.21a1.14,1.14,0,0,0-1.14-1.14Z"/><path class="cls-15" d="M122.29,226.76h-33c.39.92.79,1.83,1.21,2.74h31.79A1.37,1.37,0,0,0,122.29,226.76Z"/><path class="cls-15" d="M122.29,233.05H92.15c.44.92.9,1.84,1.36,2.74h28.78A1.37,1.37,0,0,0,122.29,233.05Z"/><path class="cls-15" d="M122.29,239.35H95.36c.5.92,1,1.83,1.52,2.74h25.41A1.37,1.37,0,0,0,122.29,239.35Z"/><path class="cls-6" d="M348,70.12h-.21a4.22,4.22,0,0,1,1.88.44h-.95a3.88,3.88,0,0,0-3.87,3.87V84.68a3.86,3.86,0,0,0,3.87,3.87h.6a4.16,4.16,0,0,1-1.53.29H348a4.23,4.23,0,0,0,4.24-4.23V74.36A4.23,4.23,0,0,0,348,70.12Z"/><path class="cls-16" d="M348,70.12h-.21a4.22,4.22,0,0,1,1.88.44h-.95a3.88,3.88,0,0,0-3.87,3.87V84.68a3.86,3.86,0,0,0,3.87,3.87h.6a4.16,4.16,0,0,1-1.53.29H348a4.23,4.23,0,0,0,4.24-4.23V74.36A4.23,4.23,0,0,0,348,70.12Z"/><path class="cls-11" d="M320.85,70.12h-.21a4.18,4.18,0,0,1,1.87.44h-.95a3.89,3.89,0,0,0-3.87,3.87V84.68a3.88,3.88,0,0,0,3.87,3.87h.61a4.24,4.24,0,0,1-1.53.29h.21a4.23,4.23,0,0,0,4.23-4.23V74.36a4.23,4.23,0,0,0-4.23-4.24Z"/><path class="cls-16" d="M320.85,70.12h-.21a4.18,4.18,0,0,1,1.87.44h-.95a3.89,3.89,0,0,0-3.87,3.87V84.68a3.88,3.88,0,0,0,3.87,3.87h.61a4.24,4.24,0,0,1-1.53.29h.21a4.23,4.23,0,0,0,4.23-4.23V74.36a4.23,4.23,0,0,0-4.23-4.24Z"/><path class="cls-11" d="M321.6,88.58a3.88,3.88,0,0,1-3.87-3.87V74.46a3.84,3.84,0,0,1,1.14-2.73,3.89,3.89,0,0,1,2.73-1.14h.95a4.18,4.18,0,0,0-1.87-.44H310.43a4.23,4.23,0,0,0-4.24,4.24V84.64a4.23,4.23,0,0,0,4.24,4.23h10.25a4.24,4.24,0,0,0,1.53-.29Z"/><path class="cls-6" d="M348.77,88.58a3.86,3.86,0,0,1-3.87-3.87V74.46a3.88,3.88,0,0,1,3.87-3.87h1a4.22,4.22,0,0,0-1.88-.44H337.59a4.23,4.23,0,0,0-4.23,4.24V84.64a4.23,4.23,0,0,0,4.23,4.23h10.25a4.16,4.16,0,0,0,1.53-.29Z"/><path class="cls-7" d="M360.87,72.7a159.66,159.66,0,0,1,10.31,16.17h-6.42a4.25,4.25,0,0,1-4.24-4.23V74.39A4.26,4.26,0,0,1,360.87,72.7Z"/><path class="cls-8" d="M348,94.25l-3.59-5.38-2.62-3.93a1.43,1.43,0,0,0-.62-.52,1.49,1.49,0,0,0-.81-.11,1.47,1.47,0,0,0-.74.33,1.54,1.54,0,0,0-.44.68l-1.11,3.55L335.85,96a1.47,1.47,0,0,0,0,.88,1.43,1.43,0,0,0,.5.71,1.53,1.53,0,0,0,.82.31,1.5,1.5,0,0,0,.85-.22l.78-.49a1.1,1.1,0,0,1,.53-.16,1,1,0,0,1,.54.12,1,1,0,0,1,.41.36,1.06,1.06,0,0,1,.19.52l.72,7.89a1.52,1.52,0,0,0,.47.94,1.45,1.45,0,0,0,1,.39h.13l1.11-.1a1.52,1.52,0,0,0,.55-.16,1.39,1.39,0,0,0,.44-.36,1.29,1.29,0,0,0,.27-.5,1.37,1.37,0,0,0,.06-.57l-.74-8.15a1.1,1.1,0,0,1,.46-1,1.11,1.11,0,0,1,.53-.2,1.1,1.1,0,0,1,.56.1l.16.07a1.46,1.46,0,0,0,.92.1,1.45,1.45,0,0,0,.9-2.24Z"/></g></svg>