<svg id="Layer_1" data-name="Layer 1" xmlns="http://www.w3.org/2000/svg" xmlns:xlink="http://www.w3.org/1999/xlink" viewBox="0 0 77.16 77.16"><defs><style>.cls-1{fill:none;}.cls-2{clip-path:url(#clip-path);}.cls-3{fill:#fff;}</style><clipPath id="clip-path" transform="translate(9.64 18.78)"><rect class="cls-1" x="-2.28" y="1.46" width="65" height="40"/></clipPath></defs><circle cx="38.58" cy="38.58" r="38.58"/><g class="cls-2"><path class="cls-3" d="M33.12,26.41a2.69,2.69,0,1,0-2.68-2.69A2.69,2.69,0,0,0,33.12,26.41Z" transform="translate(9.64 18.78)"/><path class="cls-3" d="M25.33,1.5v40h-10v-30H-2.28V1.46H25.33Z" transform="translate(9.64 18.78)"/><path class="cls-3" d="M62.72,21.51v0a19.87,19.87,0,0,1-1.49,7.54c-.23.55-.48,1.1-.76,1.62-.15.31-.32.6-.5.9a18.8,18.8,0,0,1-1.75,2.51l-.26.3a18.37,18.37,0,0,1-2.2,2.21l-.31.26a20.08,20.08,0,0,1-2.51,1.75c-.28.17-.59.34-.89.5h0c-.53.27-1,.52-1.61.75a18.35,18.35,0,0,1-2.5.84,19.86,19.86,0,0,1-2.51.49,19.38,19.38,0,0,1-2.52.16V31.56a10.1,10.1,0,0,0,2.51-.32,9.93,9.93,0,0,0,2.52-1,10.11,10.11,0,0,0,2.51-2.07,9.61,9.61,0,0,0,1.13-1.57,10,10,0,0,0,1.36-5v0a10.06,10.06,0,0,0-2.49-6.62,11.29,11.29,0,0,0-.91-.92,10,10,0,0,0-6.63-2.5v0h-5V19h-10V1.54H42.9v.12a19.38,19.38,0,0,1,2.52.16,19.63,19.63,0,0,1,6.68,2.1c.29.15.57.31.84.47a19.15,19.15,0,0,1,2.51,1.76l.35.29A18.36,18.36,0,0,1,58,8.6c.1.12.2.23.29.35A19.18,19.18,0,0,1,60,11.47c.16.28.32.56.47.84.29.55.54,1.11.78,1.67a19.6,19.6,0,0,1,1.31,5A18.82,18.82,0,0,1,62.72,21.51Z" transform="translate(9.64 18.78)"/></g></svg>