<svg id="Layer_1" data-name="Layer 1" xmlns="http://www.w3.org/2000/svg" xmlns:xlink="http://www.w3.org/1999/xlink" viewBox="0 0 65 40"><defs><style>.cls-1{fill:none;}.cls-2{clip-path:url(#clip-path);}</style><clipPath id="clip-path"><rect class="cls-1" width="65" height="40"/></clipPath></defs><g class="cls-2"><path d="M35.4,25a2.69,2.69,0,1,0-2.68-2.69A2.69,2.69,0,0,0,35.4,25Z"/><path d="M27.61,0V40h-10v-30H0V0H27.61Z"/><path d="M65,20.05v0a19.87,19.87,0,0,1-1.49,7.54c-.23.55-.48,1.1-.76,1.62-.15.31-.32.6-.5.9a18.8,18.8,0,0,1-1.75,2.51l-.26.3A18.37,18.37,0,0,1,58,35.16l-.31.26a20.08,20.08,0,0,1-2.51,1.75c-.28.17-.59.34-.89.5h0c-.53.27-1,.52-1.61.75a18.35,18.35,0,0,1-2.5.84,19.86,19.86,0,0,1-2.51.49,19.38,19.38,0,0,1-2.52.16V30.1a10.1,10.1,0,0,0,2.51-.32,9.93,9.93,0,0,0,2.52-1,10.11,10.11,0,0,0,2.51-2.07,9.61,9.61,0,0,0,1.13-1.57,10,10,0,0,0,1.36-5v0a10.06,10.06,0,0,0-2.49-6.62,11.29,11.29,0,0,0-.91-.92A10,10,0,0,0,45.18,10v0h-5v7.54h-10V.08H45.18V.2A19.38,19.38,0,0,1,47.7.36a19.63,19.63,0,0,1,6.68,2.1c.29.15.57.31.84.47a19.15,19.15,0,0,1,2.51,1.76l.35.29a18.36,18.36,0,0,1,2.16,2.16c.1.12.2.23.29.35A19.18,19.18,0,0,1,62.28,10c.16.28.32.56.47.84.29.55.54,1.11.78,1.67a19.6,19.6,0,0,1,1.31,5A18.82,18.82,0,0,1,65,20.05Z"/></g></svg>