<svg width="65" height="40" viewBox="0 0 65 40" fill="none" xmlns="http://www.w3.org/2000/svg">
<g clip-path="url(#clip0_24_3)">
<path d="M35.4031 24.9461C36.8852 24.9461 38.0867 23.7421 38.0867 22.257C38.0867 20.7719 36.8852 19.5679 35.4031 19.5679C33.921 19.5679 32.7195 20.7719 32.7195 22.257C32.7195 23.7421 33.921 24.9461 35.4031 24.9461Z" fill="#57DEC9"/>
<path d="M27.6116 0.0432791V40L25.1022 39.9957L22.5914 39.9928L20.0821 39.9885L17.5713 39.9841V9.9441L15.0619 9.93977L12.5511 9.93544L10.0418 9.93256L7.53095 9.92823L5.02016 9.9239L2.5108 9.91957L0 9.91669V0L2.5108 0.00288527L5.02016 0.00721319L7.53095 0.0115411L10.0418 0.015869L12.5511 0.0187543L15.0619 0.0230822L17.5713 0.0274101L20.0821 0.031738L22.5914 0.0346233L25.1022 0.0389512L27.6116 0.0432791Z" fill="#57DEC9"/>
<path d="M64.9986 20.0498V20.0801C65 22.6683 64.4932 25.2315 63.5071 27.6236C63.2796 28.1747 63.0291 28.7157 62.7541 29.2394C62.5957 29.5452 62.4287 29.8438 62.2545 30.1396C61.7357 31.0212 61.1484 31.8605 60.4981 32.6498C60.4161 32.7536 60.3311 32.8532 60.2447 32.9527C59.5692 33.747 58.8312 34.4855 58.0377 35.1614C57.9355 35.2494 57.8362 35.3331 57.7339 35.4153C56.9443 36.0641 56.1053 36.6502 55.2246 37.1681C54.9366 37.3412 54.6314 37.51 54.3277 37.6658H54.319C53.795 37.9414 53.2652 38.1938 52.7138 38.4203C51.8982 38.7578 51.0608 39.0398 50.2073 39.2643C49.3825 39.4819 48.5442 39.6443 47.698 39.7504C46.8637 39.8561 46.0237 39.9091 45.1828 39.9091V30.0992C46.0299 30.0996 46.8735 29.9925 47.6936 29.7804C48.5752 29.5516 49.4211 29.2021 50.2073 28.7417C50.769 28.4165 51.2971 28.0362 51.7838 27.6063C52.1163 27.3171 52.428 27.0047 52.7167 26.6715C53.1455 26.1849 53.5255 25.6573 53.8511 25.0961C54.7384 23.5687 55.2059 21.833 55.2059 20.0656V20.0498C55.2085 17.6118 54.3228 15.2566 52.7152 13.4266C52.4329 13.1029 52.1294 12.7983 51.8068 12.5149C49.9799 10.8952 47.6236 10.0031 45.1843 10.0076V9.98738H42.6749H40.1641V17.5338H37.6548H35.4852H35.144H32.6346H30.357H30.1238V0.0779018H32.6346H35.144H37.6548H40.1641H42.6749H45.1843V0.200527C46.0237 0.200257 46.8622 0.252776 47.6951 0.357774C48.5422 0.461373 49.3814 0.62138 50.2073 0.83673C51.0608 1.06072 51.8982 1.34219 52.7138 1.67923C53.2897 1.91438 53.8411 2.1755 54.3809 2.46114C54.6689 2.6054 54.9482 2.76842 55.2246 2.93144C56.1054 3.45077 56.9444 4.03827 57.7339 4.68857C57.852 4.78234 57.9686 4.88044 58.0838 4.9771C58.8588 5.64092 59.5809 6.36444 60.2433 7.14106C60.3441 7.25647 60.4405 7.37332 60.5312 7.49161C61.1794 8.28321 61.7647 9.12443 62.2819 10.0076C62.4446 10.286 62.6001 10.5673 62.7498 10.8544C63.0377 11.3968 63.2925 11.9551 63.5272 12.525C64.1856 14.1371 64.6276 15.8297 64.8416 17.5583C64.9459 18.3847 64.9983 19.2168 64.9986 20.0498Z" fill="#57DEC9"/>
</g>
<defs>
<clipPath id="clip0_24_3">
<rect width="65" height="40" fill="white"/>
</clipPath>
</defs>
</svg>
