<svg width="115" height="74" viewBox="0 0 115 74" fill="none" xmlns="http://www.w3.org/2000/svg">
<g clip-path="url(#clip0_13_33)">
<mask id="mask0_13_33" style="mask-type:luminance" maskUnits="userSpaceOnUse" x="0" y="0" width="122" height="74">
<path d="M121.652 0H0V73.4671H121.652V0Z" fill="white"/>
</mask>
<g mask="url(#mask0_13_33)">
<path d="M66.6596 36.1889C65.9083 36.1889 65.1739 35.9655 64.5491 35.5469C63.9244 35.1283 63.4376 34.5334 63.15 33.8373C62.8625 33.1412 62.7873 32.3753 62.9339 31.6363C63.0804 30.8974 63.4422 30.2186 63.9735 29.6858C64.5048 29.1531 65.1817 28.7903 65.9186 28.6433C66.6554 28.4963 67.4192 28.5717 68.1134 28.8601C68.8075 29.1484 69.4008 29.6366 69.8182 30.2631C70.2357 30.8896 70.4585 31.6261 70.4585 32.3795C70.4585 33.3898 70.0582 34.3588 69.3458 35.0732C68.6334 35.7876 67.6672 36.1889 66.6596 36.1889ZM66.6596 16.9605C63.6225 16.9784 60.6586 17.8979 58.1419 19.603C55.6253 21.3081 53.6686 23.7225 52.5187 26.5415C51.3688 29.3604 51.0771 32.4578 51.6806 35.4428C52.284 38.4278 53.7556 41.1667 55.9095 43.314C58.0635 45.4614 60.8033 46.9209 63.7835 47.5086C66.7637 48.0962 69.8506 47.7856 72.655 46.6159C75.4593 45.4463 77.8554 43.47 79.541 40.9363C81.2266 38.4027 82.1261 35.4252 82.1262 32.3795C82.1262 30.347 81.7255 28.3345 80.9471 26.4579C80.1688 24.5812 79.0281 22.8774 77.5907 21.4444C76.1533 20.0114 74.4476 18.8776 72.5716 18.108C70.6956 17.3385 68.6865 16.9485 66.6596 16.9605Z" fill="#CCD6F6"/>
<path d="M15.4663 28.8425C16.4738 28.8425 17.44 29.2439 18.1525 29.9583C18.8649 30.6727 19.2651 31.6416 19.2651 32.652C19.2651 33.6623 18.8649 34.6312 18.1525 35.3456C17.44 36.06 16.4738 36.4614 15.4663 36.4614C14.4588 36.4614 13.4926 36.06 12.7801 35.3456C12.0677 34.6312 11.6675 33.6623 11.6675 32.652C11.6551 32.1483 11.7449 31.6474 11.9314 31.1796C12.1179 30.7118 12.3973 30.2868 12.7525 29.9306C13.1078 29.5743 13.5315 29.2942 13.998 29.1072C14.4645 28.9201 14.964 28.8301 15.4663 28.8425ZM19.1746 50.792H15.0141C14.4349 50.8556 13.8488 50.7937 13.2956 50.6106C12.9922 50.5322 12.7223 50.3572 12.5266 50.1119C12.3309 49.8665 12.2199 49.5641 12.2102 49.2501C12.2038 48.9318 12.3089 48.6213 12.5072 48.3727C12.7055 48.1242 12.9845 47.9532 13.2956 47.8896H15.4663C18.5291 47.8895 21.523 46.9776 24.0684 45.2693C26.6137 43.561 28.596 41.1334 29.7639 38.294C30.9319 35.4547 31.2328 32.3316 30.6287 29.3205C30.0246 26.3095 28.5425 23.5461 26.3704 21.3807C24.1983 19.2153 21.434 17.7453 18.4278 17.1572C15.4217 16.569 12.3091 16.8891 9.48459 18.0769C6.66008 19.2647 4.25083 21.2668 2.56227 23.8292C0.873713 26.3917 -0.018135 29.3992 -0.000223696 32.4705C-0.00679125 35.7097 1.04122 38.8625 2.98456 41.4499H2.89411C2.89411 41.4499 -0.452456 45.2593 0.0902293 49.7036C0.813809 56.5968 5.87886 58.5922 5.87886 58.5922C5.87886 58.5922 7.14514 59.3178 10.6726 59.5899L15.7377 59.7713L17.0039 59.9527C17.1609 59.9467 17.317 59.9781 17.4596 60.0442C17.6022 60.1103 17.7271 60.2094 17.8241 60.3333C17.9212 60.4572 17.9876 60.6023 18.018 60.7569C18.0484 60.9114 18.0418 61.071 17.9988 61.2225C17.9084 62.6737 15.7377 62.6737 15.7377 62.6737H13.8383L11.9389 62.3109H11.6675C11.5771 62.3109 11.5771 62.4923 11.5771 62.4923L9.13498 71.5623V71.8344H9.31588C10.888 72.4319 12.529 72.828 14.2 73.0135C15.8536 73.2307 17.5301 73.2002 19.1746 72.9228C19.1746 72.9228 29.6666 71.9251 30.0283 61.2225C30.3901 50.5199 19.1746 50.5199 19.1746 50.5199" fill="#CCD6F6"/>
<path d="M99.0396 36.1894C98.2883 36.1894 97.5539 35.9659 96.9292 35.5474C96.3045 35.1288 95.8175 34.5338 95.53 33.8378C95.2425 33.1417 95.1673 32.3757 95.3138 31.6368C95.4604 30.8978 95.8222 30.2191 96.3535 29.6863C96.8848 29.1536 97.5617 28.7907 98.2985 28.6437C99.0354 28.4967 99.7992 28.5722 100.493 28.8605C101.188 29.1488 101.781 29.6371 102.198 30.2636C102.616 30.89 102.838 31.6265 102.838 32.38C102.838 33.3903 102.438 34.3592 101.726 35.0736C101.013 35.788 100.047 36.1894 99.0396 36.1894ZM99.0396 16.9609C95.9985 16.9609 93.0258 17.8652 90.4972 19.5595C87.9686 21.2538 85.9978 23.6619 84.834 26.4793C83.6702 29.2968 83.3657 32.3971 83.959 35.3881C84.5523 38.3791 86.0167 41.1265 88.1671 43.2829C90.3175 45.4393 93.0573 46.9078 96.0399 47.5027C99.0226 48.0977 102.114 47.7923 104.924 46.6253C107.733 45.4582 110.135 43.482 111.824 40.9463C113.514 38.4107 114.416 35.4296 114.416 32.38C114.416 28.2906 112.796 24.3687 109.912 21.4771C107.029 18.5854 103.118 16.9609 99.0396 16.9609Z" fill="#CCD6F6"/>
<path d="M51.374 33.7402C51.0844 34.4645 50.5849 35.085 49.9399 35.5216C49.295 35.9582 48.5342 36.1907 47.7561 36.1891C46.7726 36.1891 45.8293 35.7973 45.1339 35.0999C44.4384 34.4025 44.0477 33.4567 44.0477 32.4704V0.725331V0.543948C44.0477 0.271847 43.9573 0.181152 43.6859 0.181152H32.6513C32.4704 0.181152 32.2896 0.271841 32.2896 0.453242V31.1099C32.2896 33.4681 32.9227 46.9824 47.3943 47.9801C47.3943 47.9801 53.5447 48.2522 57.1626 44.6242C55.5093 43.3212 54.1419 41.6901 53.1458 39.8329C52.1498 37.9758 51.5466 35.9325 51.374 33.8309" fill="#CCD6F6"/>
</g>
</g>
<defs>
<clipPath id="clip0_13_33">
<rect width="114.416" height="73.4671" fill="white"/>
</clipPath>
</defs>
</svg>
